<?xml version="1.0" encoding="UTF-8"?>
<svg xmlns="http://www.w3.org/2000/svg" xmlns:xlink="http://www.w3.org/1999/xlink" viewBox="0 0 500.08 134.25">
  <defs>
    <style>
      .cls-1 {
        fill: url(#Degradado_sin_nombre_30-13);
      }

      .cls-1, .cls-2, .cls-3, .cls-4, .cls-5, .cls-6, .cls-7, .cls-8, .cls-9, .cls-10, .cls-11, .cls-12, .cls-13, .cls-14 {
        mix-blend-mode: multiply;
        opacity: .6;
      }

      .cls-2 {
        fill: url(#Degradado_sin_nombre_30-7);
      }

      .cls-15 {
        isolation: isolate;
      }

      .cls-3 {
        fill: url(#Degradado_sin_nombre_30-4);
      }

      .cls-4 {
        fill: url(#Degradado_sin_nombre_30-8);
      }

      .cls-5 {
        fill: url(#Degradado_sin_nombre_30-14);
      }

      .cls-6 {
        fill: url(#Degradado_sin_nombre_30-3);
      }

      .cls-7 {
        fill: url(#Degradado_sin_nombre_30-6);
      }

      .cls-8 {
        fill: url(#Degradado_sin_nombre_30);
      }

      .cls-9 {
        fill: url(#Degradado_sin_nombre_30-10);
      }

      .cls-10 {
        fill: url(#Degradado_sin_nombre_30-5);
      }

      .cls-11 {
        fill: url(#Degradado_sin_nombre_30-12);
      }

      .cls-12 {
        fill: url(#Degradado_sin_nombre_30-2);
      }

      .cls-13 {
        fill: url(#Degradado_sin_nombre_30-11);
      }

      .cls-14 {
        fill: url(#Degradado_sin_nombre_30-9);
      }
    </style>
    <radialGradient id="Degradado_sin_nombre_30" data-name="Degradado sin nombre 30" cx="250.03" cy="249.7" fx="250.03" fy="249.7" r="314.29" gradientTransform="translate(56.3 -25.51) rotate(6.92) scale(.92 1)" gradientUnits="userSpaceOnUse">
      <stop offset=".4" stop-color="#f8ab47" stop-opacity="0"/>
      <stop offset="1" stop-color="#fcd37b"/>
    </radialGradient>
    <radialGradient id="Degradado_sin_nombre_30-2" data-name="Degradado sin nombre 30" r="314.29" xlink:href="#Degradado_sin_nombre_30"/>
    <radialGradient id="Degradado_sin_nombre_30-3" data-name="Degradado sin nombre 30" r="314.29" xlink:href="#Degradado_sin_nombre_30"/>
    <radialGradient id="Degradado_sin_nombre_30-4" data-name="Degradado sin nombre 30" cy="249.7" fy="249.7" r="314.29" xlink:href="#Degradado_sin_nombre_30"/>
    <radialGradient id="Degradado_sin_nombre_30-5" data-name="Degradado sin nombre 30" r="314.29" xlink:href="#Degradado_sin_nombre_30"/>
    <radialGradient id="Degradado_sin_nombre_30-6" data-name="Degradado sin nombre 30" r="314.29" xlink:href="#Degradado_sin_nombre_30"/>
    <radialGradient id="Degradado_sin_nombre_30-7" data-name="Degradado sin nombre 30" cy="249.7" fy="249.7" r="314.29" xlink:href="#Degradado_sin_nombre_30"/>
    <radialGradient id="Degradado_sin_nombre_30-8" data-name="Degradado sin nombre 30" cx="79.97" cy="16.81" fx="79.97" fy="16.81" r=".15" xlink:href="#Degradado_sin_nombre_30"/>
    <radialGradient id="Degradado_sin_nombre_30-9" data-name="Degradado sin nombre 30" r="314.29" xlink:href="#Degradado_sin_nombre_30"/>
    <radialGradient id="Degradado_sin_nombre_30-10" data-name="Degradado sin nombre 30" r="314.29" xlink:href="#Degradado_sin_nombre_30"/>
    <radialGradient id="Degradado_sin_nombre_30-11" data-name="Degradado sin nombre 30" r="314.29" xlink:href="#Degradado_sin_nombre_30"/>
    <radialGradient id="Degradado_sin_nombre_30-12" data-name="Degradado sin nombre 30" r="314.29" xlink:href="#Degradado_sin_nombre_30"/>
    <radialGradient id="Degradado_sin_nombre_30-13" data-name="Degradado sin nombre 30" r="314.29" xlink:href="#Degradado_sin_nombre_30"/>
    <radialGradient id="Degradado_sin_nombre_30-14" data-name="Degradado sin nombre 30" r="314.29" xlink:href="#Degradado_sin_nombre_30"/>
  </defs>
  <g class="cls-15">
    <g id="Layer_2" data-name="Layer 2">
      <g id="TEXTS">
        <path class="cls-8" d="m291.38,62.82c-.83.82-1.66,1.81-2.28,3.05-.16.33.4,1.71.85,3.45,1.05-1.84,1.83-2.93,2.33-4.29.13-.36-.81-2.31-.9-2.22Z"/>
        <path class="cls-8" d="m291.99,80c-.08.23.83,1.78,1.03,1.61.64-.56,1.3-1.53,1.68-2.59.15-.42-.39-1.48-.83-3.02-.88,1.79-1.49,2.81-1.88,4Z"/>
        <path class="cls-8" d="m288.7,77.86c-.7-1.24-1.18-2.51-1.37-2.35-.72.59-1.4,1.57-1.96,2.62-.09.17.54,2.12.75,2.02.73-.33,1.43-1.2,2.59-2.29Z"/>
        <path class="cls-8" d="m278.19,58.59c-.88.83-1.65,2.17-2.35,3.5-.07.14.71,2.26.97,2.12.92-.48,1.79-1.55,3.24-2.92-.96-1.44-1.63-2.94-1.86-2.71Z"/>
        <path class="cls-8" d="m268.1,87.58c-.12.38.52,1.38.81,2.09.64-.9,1.39-1.68,1.86-2.78.18-.41-.29-1.58-.65-3.23-.95,1.76-1.63,2.72-2.02,3.92Z"/>
        <path class="cls-8" d="m267.39,69.59c-.78.62-1.62,1.71-2.06,2.95-.21.61.4,1.96.87,3.94,1.09-2.08,1.88-3.24,2.32-4.66.13-.41-.91-2.41-1.13-2.23Z"/>
        <path class="cls-8" d="m275.58,91.23c.59-.8,1.31-1.47,1.71-2.47.19-.46-.25-1.59-.54-3.21-.9,1.62-1.56,2.45-1.86,3.52-.14.48.44,1.43.69,2.16Z"/>
        <path class="cls-8" d="m281.54,90.7c-.16.34.24,1.4.52,2.84.84-1.45,1.46-2.27,1.84-3.32.12-.34-.41-1.26-.64-1.92-.59.78-1.26,1.45-1.71,2.41Z"/>
        <path class="cls-8" d="m280.81,73.72c-.77.64-1.48,1.68-2.11,2.76-.08.14.54,2.12.73,2.02.81-.4,1.57-1.27,2.81-2.38-.74-1.28-1.24-2.57-1.44-2.4Z"/>
        <path class="cls-8" d="m338.84,50.06c-.75.46-1.42,1.48-2.12,2.28.32.68.64,1.99.96,1.91.73-.19,1.46-1.05,2.83-2.16-.91-1.15-1.37-2.21-1.67-2.02Z"/>
        <path class="cls-8" d="m308.54,54.49c-.83.72-1.64,1.77-2.28,2.97-.13.25.47,1.66.98,3.36,1.02-1.83,1.77-2.95,2.29-4.3.1-.27-.83-2.17-.99-2.03Z"/>
        <path class="cls-8" d="m306.06,68.77c-.77-1.14-1.22-2.3-1.49-2.12-.73.47-1.38,1.51-2.06,2.32.28.74.6,2.19.84,2.1.75-.3,1.46-1.18,2.71-2.3Z"/>
        <path class="cls-8" d="m315.29,56.36c-.79.61-1.63,1.34-2.24,2.39-.19.33.27,1.79.6,3.71,1.07-1.8,1.8-2.78,2.28-4.01.14-.36-.56-2.16-.65-2.1Z"/>
        <path class="cls-8" d="m310.99,68.13c-.67.65-1.19,1.83-1.78,2.8.31.53.7,1.63.92,1.49.72-.45,1.39-1.36,2.6-2.64-.91-.91-1.49-1.89-1.74-1.65Z"/>
        <path class="cls-8" d="m230.99,90.4c-.17.75.54,1.9.86,2.88.68-1.07,1.51-2.01,1.98-3.28.22-.59-.26-1.84-.62-3.93-1.08,2.01-1.92,3.05-2.21,4.34Z"/>
        <path class="cls-8" d="m233.99,110.12c.95-1.62,1.63-2.42,1.96-3.49.15-.51-.38-1.51-.59-2.29-.59.76-1.32,1.37-1.71,2.35-.22.54.14,1.69.34,3.44Z"/>
        <path class="cls-8" d="m230.82,70.13c-.92.73-1.85,2.04-2.42,3.5-.18.45.86,3.12,1.17,2.96.92-.49,1.75-1.87,3.12-3.51-.9-1.47-1.58-3.18-1.87-2.95Z"/>
        <path class="cls-8" d="m237.02,72.34c-.7,1.34-1.59,2.55-2.02,4.06-.2.71.49,2,.77,3.03.86-1.08,1.9-1.95,2.49-3.33.28-.66-.27-2.31-.44-3.51-.27-.08-.54-.17-.8-.25Z"/>
        <path class="cls-8" d="m227.49,106.77c.73-.3,1.44-1.03,2.57-1.95-.54-1.41-.94-2.84-1.07-2.75-.72.54-1.48,1.31-2,2.32-.17.32.37,2.43.5,2.38Z"/>
        <path class="cls-8" d="m226.64,84.69c-.85.74-1.71,1.85-2.27,3.18-.18.43.65,2.85.83,2.74.89-.52,1.71-1.58,2.93-2.84-.7-1.48-1.31-3.23-1.49-3.08Z"/>
        <path class="cls-8" d="m239.56,90.15c-.72.47-1.49,1.46-1.94,2.57-.18.46.53,2.61.66,2.53.8-.48,1.56-1.37,2.8-2.59-.76-1.3-1.25-2.69-1.53-2.51Z"/>
        <path class="cls-8" d="m244.19,95.42c-.17.49.32,1.55.73,3.24.92-1.86,1.61-2.86,1.9-4.06.12-.52-.59-1.46-.93-2.21-.59.99-1.3,1.87-1.7,3.03Z"/>
        <path class="cls-8" d="m240.35,108.59c-.16.52.33,1.53.53,2.32.63-.66,1.25-1.32,2.27-2.39-.61-1.06-1.04-2.29-1.28-2.13-.58.38-1.23,1.27-1.52,2.21Z"/>
        <path class="cls-8" d="m243.88,75.85c-.83.75-1.69,1.84-2.24,3.14-.18.42.62,2.78.8,2.68.86-.47,1.66-1.49,2.94-2.77-.73-1.53-1.33-3.2-1.5-3.05Z"/>
        <path class="cls-8" d="m223.66,102.12c-.69-1.32-1.2-2.79-1.41-2.62-.72.55-1.46,1.55-1.93,2.67-.15.35.55,2.43.8,2.33.73-.29,1.42-1.26,2.55-2.38Z"/>
        <path class="cls-8" d="m260.92,67.17c-.84.65-1.56,1.99-2.32,3.06.43.92.9,2.73,1.27,2.59.82-.32,1.59-1.63,2.9-3.12-.94-1.33-1.55-2.76-1.85-2.52Z"/>
        <path class="cls-8" d="m261.38,86.09c-.13.28.46,1.47.93,2.9.86-1.73,1.52-2.75,1.89-3.98.12-.4-.54-1.35-.84-2.04-.68,1.02-1.43,1.94-1.98,3.12Z"/>
        <path class="cls-8" d="m251.43,99.08c.72-.28,1.42-1.02,2.5-1.89-.52-1.36-.95-2.81-1.07-2.72-.72.59-1.44,1.4-1.99,2.42-.14.26.39,2.26.55,2.19Z"/>
        <path class="cls-8" d="m252.14,67.87c-.18.62.67,1.94,1.05,2.94.8-1.05,1.8-1.9,2.3-3.24.27-.72-.29-2.28-.68-4.76-1.31,2.37-2.23,3.55-2.67,5.05Z"/>
        <path class="cls-8" d="m256.78,80.71c-.77.77-1.5,1.88-2.04,3.11-.12.26.71,2.35.92,2.21.79-.48,1.5-1.54,2.65-2.86-.77-1.27-1.36-2.64-1.53-2.46Z"/>
        <path class="cls-8" d="m298,64.81c-.79.65-1.6,1.53-2.19,2.66-.16.31.41,1.74.87,3.54,1-1.87,1.7-2.95,2.16-4.25.11-.32-.7-2.07-.84-1.95Z"/>
        <path class="cls-8" d="m423.17,41.55c.41.69.76,1.88,1.24,1.94.48.06,1.09-1.04,1.64-1.63-.31-.81-.63-1.63-1.11-2.89-.77,1.12-1.27,1.84-1.77,2.57Z"/>
        <path class="cls-8" d="m463.51,44.56c-.51-.05-1.13.9-1.7,1.4.35.78.61,1.97,1.09,2.21.48.23,1.19-.5,2.53-1.18-1-1.34-1.41-2.38-1.92-2.43Z"/>
        <path class="cls-8" d="m456.98,39.94c-.47-.04-1.08,1.17-1.63,1.83.49.75.9,1.89,1.5,2.11.47.17,1.17-.79,2.35-1.7-1.07-1.15-1.59-2.18-2.21-2.24Z"/>
        <path class="cls-8" d="m472.9,41.35c-.34-.2-1.07,1.09-1.63,1.71.39.91.78,1.81,1.32,3.08.8-.99,1.34-1.65,1.87-2.32-.51-.87-.92-2.11-1.56-2.47Z"/>
        <path class="cls-8" d="m431.24,43.73c-.47-.06-1.09,1.06-1.64,1.67.26.76.52,1.53.92,2.69.79-.97,1.34-1.64,1.88-2.3-.38-.73-.7-1.99-1.16-2.06Z"/>
        <path class="cls-8" d="m439.31,41.01c.44.82.79,2.11,1.36,2.3.42.14,1.41-.99,1.6-1.81.22-.97-.16-2.21-.32-3.76-1.55,1.91-2.09,2.59-2.64,3.26Z"/>
        <path class="cls-8" d="m445.71,45.1c.37.77.66,2.05,1.13,2.17.46.12,1.12-.96,1.69-1.51-.27-.86-.55-1.73-.97-3.05-.8,1.03-1.33,1.71-1.85,2.38Z"/>
        <path class="cls-8" d="m390.74,44.47c-.13.33.47,2.13.69,2.05.66-.23,1.29-1.07,1.94-1.66-.23-.8-.45-1.6-.79-2.82-.81,1.01-1.48,1.56-1.83,2.43Z"/>
        <path class="cls-8" d="m352.09,52.86c-.65.35-1.22,1.4-1.83,2.16.32.64.65,1.89.96,1.81.66-.18,1.31-1.07,2.43-2.09-.77-.98-1.23-2.06-1.57-1.88Z"/>
        <path class="cls-8" d="m369.27,45.48c-.74.49-1.41,1.39-2.11,2.13.24.78.48,1.55.94,3.02.88-1.54,1.5-2.48,1.98-3.58.07-.16-.61-1.69-.8-1.57Z"/>
        <path class="cls-8" d="m78.41,115.67c-.06,1.15.57,2.22.91,3.33.61-.72,1.21-1.45,2.84-3.39-.94-1.04-1.49-2.22-2.13-2.19-.52.02-1.59,1.5-1.63,2.25Z"/>
        <path class="cls-8" d="m83.88,97.56c-.49,1.13-1.36,2.34-1.37,3.36-.01,1.27.69,2.39,1.08,3.57.57-.99,1.49-1.93,1.63-2.99.16-1.26-.35-2.61-.57-3.92-.26,0-.51-.01-.77-.02Z"/>
        <path class="cls-8" d="m80.64,78.39c-.09,1.47.74,2.88,1.17,4.31.79-.89,1.59-1.77,2.91-3.25-.87-1.91-1.42-3.13-1.98-4.35-.74,1.1-2.03,2.23-2.1,3.28Z"/>
        <path class="cls-12" d="m90.52,129.94c-.12,1.08.2,2.21.46,4.3.88-1.71,1.66-2.62,1.68-3.4.02-1.02-.55-1.93-.87-2.89-.45.66-1.19,1.29-1.27,1.98Z"/>
        <path class="cls-8" d="m86.65,85.91c-.15,1.28.46,3.24,1.12,3.8.4.34,1.51-1.42,2.84-2.79-.87-1.99-1.41-3.22-1.95-4.45-.71,1.14-1.86,2.24-2,3.45Z"/>
        <path class="cls-8" d="m88.59,107.91c-.04,1.3.54,2.5.86,3.74.68-.73,1.36-1.46,2.52-2.71-.81-1.61-1.22-2.87-1.87-3.46-.19-.17-1.49,1.64-1.52,2.43Z"/>
        <path class="cls-8" d="m84.41,123.24c.03,1.04.63,1.88.98,2.81.47-.83,1.24-1.64,1.32-2.49.1-1-.39-2.04-.84-4.01-.78,1.89-1.49,2.91-1.47,3.69Z"/>
        <path class="cls-8" d="m190.02,105.59c-.23.71.33,2.04.77,4.37,1.04-2.28,1.83-3.41,2.05-4.71.14-.84-.54-1.92-.85-2.88-.68,1.05-1.57,1.95-1.98,3.22Z"/>
        <path class="cls-8" d="m148.72,129.35c-.65-1.21-1.13-2.66-1.4-2.49-.62.39-1.37,1.45-1.59,2.45-.14.65.52,2.42.87,2.37.57-.08,1.18-1.23,2.12-2.32Z"/>
        <path class="cls-8" d="m171.83,129.17c-.7-1.1-1.29-2.34-1.42-2.19-.66.77-1.32,1.79-1.73,2.95-.13.37.65,2.14.75,2.05.72-.61,1.37-1.54,2.4-2.81Z"/>
        <path class="cls-8" d="m203.72,113.97c.66-.84,1.48-1.51,1.91-2.59.24-.6-.16-1.88-.42-4.17-1.05,2.13-1.74,3.1-2.04,4.29-.16.64.34,1.64.54,2.47Z"/>
        <path class="cls-8" d="m218.03,114.15c-.65.32-1.3,1.38-1.77,2.37-.14.31.37,2.11.51,2.06.66-.29,1.3-.98,1.95-1.52.33-.68.67-1.37,1-2.05-.57-.32-1.17-1.11-1.69-.85Z"/>
        <path class="cls-8" d="m215.75,96.54c-.76.79-1.52,1.89-2.01,3.15-.15.39.57,2.44.79,2.33.79-.37,1.53-1.33,2.75-2.52-.76-1.49-1.4-3.11-1.54-2.97Z"/>
        <path class="cls-8" d="m209.76,114.09c-.15.63.38,1.58.6,2.39.64-.93,1.4-1.73,1.86-2.85.18-.43-.32-1.6-.69-3.21-.85,1.68-1.52,2.57-1.77,3.67Z"/>
        <path class="cls-8" d="m196.57,108.89c-.14.7.51,1.7.81,2.57.68-1.07,1.51-2.01,1.96-3.28.2-.57-.34-1.83-.8-3.96-.98,2.22-1.71,3.36-1.98,4.67Z"/>
        <path class="cls-8" d="m194.1,121.05c-.65.79-1.26,1.81-1.71,2.93-.09.21.56,1.8.92,1.78.7-.06,1.45-.81,2.17-1.28-.11-.58-.22-1.16-.33-1.74-.36-.59-.95-1.81-1.05-1.68Z"/>
        <path class="cls-8" d="m207.23,96.83c-.23.74.29,2.05.7,4.41,1.12-2.39,1.92-3.59,2.25-5.02.15-.63-.65-1.71-1.02-2.59-.67,1.04-1.54,1.94-1.93,3.19Z"/>
        <path class="cls-8" d="m181.27,83.24c-.3.95.31,2.58.5,3.9.28.08.57.17.85.25.73-1.45,1.8-2.8,2.09-4.39.2-1.11-.66-2.56-1.04-3.86-.83,1.34-1.9,2.5-2.4,4.1Z"/>
        <path class="cls-8" d="m183.5,102.44c-.15.78.58,1.87.91,2.83.77-1.23,1.69-2.31,2.23-3.76.2-.53-.49-1.93-1.07-3.97-.99,2.23-1.79,3.48-2.07,4.91Z"/>
        <path class="cls-8" d="m185.87,120.63c-.23.6.26,1.89.59,3.89.96-1.96,1.66-2.96,1.96-4.18.15-.61-.41-1.61-.65-2.43-.66.88-1.49,1.6-1.91,2.72Z"/>
        <path class="cls-8" d="m204.16,78.19c.69,1.79,1.11,2.86,1.53,3.93.86-1.18,1.93-2.16,2.5-3.64.24-.63-.56-2.31-.89-3.52-.89.91-1.77,1.82-3.14,3.22Z"/>
        <path class="cls-8" d="m180.09,120.24c.65-.87,1.52-1.56,1.87-2.66.26-.82-.18-2.15-.45-4.59-1.09,2.24-1.84,3.32-2.15,4.62-.16.67.46,1.74.73,2.63Z"/>
        <path class="cls-8" d="m196.54,86.94c-.89.84-1.88,2.03-2.34,3.48-.22.71.63,2.25,1,3.41.85-1.07,1.7-2.15,2.96-3.74-.75-1.5-1.43-3.33-1.62-3.15Z"/>
        <path class="cls-8" d="m202.36,89.85c-.58,1.31-1.43,2.55-1.65,3.94-.15.9.61,2.03.97,3.05.72-1.16,1.65-2.16,2.07-3.53.24-.81-.34-2.21-.55-3.34-.28-.04-.56-.08-.84-.12Z"/>
        <path class="cls-8" d="m116.63,94.66c-.59,1.31-1.52,2.59-1.66,3.92-.13,1.2.61,2.46.97,3.69.73-1.07,1.84-2,2.09-3.25.25-1.26-.37-2.82-.6-4.26-.27-.04-.53-.08-.8-.11Z"/>
        <path class="cls-8" d="m116.99,119.86c-.09,1.18.47,2.34.75,3.51.6-.79,1.54-1.46,1.72-2.39.21-1.11-.23-2.45-.52-4.72-1.01,1.78-1.89,2.71-1.96,3.6Z"/>
        <path class="cls-8" d="m97.82,115.7c-.79-1.52-1.25-2.41-1.71-3.29-.53.92-1.42,1.86-1.48,2.77-.08,1.12.54,2.22.85,3.32.63-.75,1.26-1.51,2.34-2.8Z"/>
        <path class="cls-8" d="m112.46,111.08c-.62.24-1.54,1.82-1.65,2.86-.1,1,.68,2.05,1.07,3.08.64-.83,1.28-1.67,2.36-3.07-.82-1.39-1.35-3.04-1.79-2.87Z"/>
        <path class="cls-8" d="m104.8,107.03c-.14,1.09.49,2.72,1.08,3.3.29.28,1.27-1.3,2.32-2.46-.68-1.73-1.13-2.85-1.57-3.98-.65,1.04-1.69,2.03-1.83,3.14Z"/>
        <path class="cls-8" d="m106.73,128.69c-.14.94.35,2.26.8,2.96.15.23,1.05-.97,1.9-1.81-.45-1.48-.75-2.47-1.06-3.47-.58.77-1.52,1.46-1.65,2.33Z"/>
        <path class="cls-8" d="m108.9,91.95c-.12,1.26.75,2.56,1.19,3.85.75-1.01,1.5-2.03,2.71-3.66-.86-1.65-1.41-2.69-1.95-3.73-.69,1.18-1.84,2.35-1.95,3.55Z"/>
        <path class="cls-8" d="m102.07,85.03c.91,1.73,1.45,2.78,2,3.83.74-1.23,1.9-2.38,2.09-3.72.17-1.18-.74-2.57-1.17-3.86-.82,1.05-1.63,2.1-2.91,3.75Z"/>
        <path class="cls-8" d="m97.97,100.32c.79,1.57,1.29,2.54,1.79,3.52.65-1.03,1.77-2.1,1.82-3.07.06-1.3-.71-2.51-1.12-3.76-.69.91-1.37,1.83-2.49,3.31Z"/>
        <path class="cls-6" d="m100.72,122.01c-.06,1.13.53,2.2.84,3.3.59-.75,1.17-1.49,1.76-2.24.26-.57.52-1.14.78-1.71-.61-.59-1.19-1.66-1.84-1.62-.51.04-1.5,1.49-1.55,2.26Z"/>
        <path class="cls-8" d="m157.48,83.3c.81,1.91,1.34,3.17,1.87,4.42.8-1.2,2.11-2.36,2.25-3.62.16-1.44-.73-2.97-1.16-4.46-.84,1.04-1.68,2.07-2.96,3.65Z"/>
        <path class="cls-8" d="m160.26,104.94c-.22.9.44,2.25.71,3.4.26.02.53.04.79.06.5-1.25,1.3-2.51,1.41-3.76.09-1.1-.61-2.2-.96-3.3-.68,1.19-1.62,2.24-1.95,3.6Z"/>
        <path class="cls-8" d="m156.83,122.56c.66-.78,1.65-1.38,1.9-2.38.25-1.01-.22-2.42-.52-4.77-1.04,1.96-1.87,2.91-2.06,4.05-.16.92.43,2.06.69,3.1Z"/>
        <path class="cls-8" d="m151.32,110.54c-.52,1.25-1.37,2.5-1.47,3.74-.08,1.02.73,2.04,1.15,3.05.56-1.05,1.41-2.02,1.61-3.18.19-1.07-.31-2.34-.51-3.52-.26-.03-.52-.07-.77-.1Z"/>
        <path class="cls-8" d="m147.86,93.02c-.21,1,.57,3.22,1.21,3.49.54.23,1.52-1.57,2.73-2.96-.75-1.86-1.23-3.05-1.72-4.24-.78,1.22-1.93,2.29-2.23,3.71Z"/>
        <path class="cls-8" d="m155.64,95.04c-.57,1.31-1.49,2.63-1.6,3.94-.09,1.15.73,2.3,1.14,3.45.7-1.16,1.7-2.18,2-3.52.23-1.06-.4-2.5-.65-3.77-.3-.03-.59-.07-.89-.1Z"/>
        <path class="cls-8" d="m163.37,127.71c.65.25,1.51-.54,2.28-.88-.16-.76-.31-1.53-.47-2.29-.43-.76-.86-1.52-1.29-2.27-.52.93-1.36,1.83-1.47,2.8-.1.89.46,2.45.95,2.64Z"/>
        <path class="cls-8" d="m172.88,114.31c-.13.79.58,1.81.92,2.72.63-1.08,1.47-2.03,1.83-3.29.21-.76-.32-2-.75-4.23-1.01,2.32-1.78,3.49-2,4.8Z"/>
        <path class="cls-8" d="m169.84,95.1c.89,1.54,1.41,2.45,1.93,3.36.76-1.32,1.78-2.49,2.17-4.02.2-.77-.74-2.19-1.16-3.31-.82,1.11-1.64,2.21-2.94,3.97Z"/>
        <path class="cls-8" d="m163.62,89.2c.86,1.82,1.38,2.9,1.9,3.99.76-1.19,1.9-2.25,2.15-3.6.21-1.13-.64-2.58-1.02-3.89-.84.98-1.68,1.95-3.02,3.51Z"/>
        <path class="cls-8" d="m168.38,107.2c-.58.06-1.58,1.56-1.76,2.61-.18,1.04.44,2.3.72,3.46.76-.77,1.51-1.54,2.76-2.81-.79-1.61-1.21-3.31-1.71-3.26Z"/>
        <path class="cls-8" d="m123.17,126.39c-.22.92.21,2.16.5,4.39.94-1.96,1.65-2.88,1.79-3.9.12-.88-.4-1.87-.64-2.81-.58.76-1.43,1.38-1.65,2.32Z"/>
        <path class="cls-8" d="m127.25,111.66c-.19.99.38,2.25.61,3.4.26.02.51.03.77.05.5-1.25,1.32-2.51,1.4-3.75.08-1.06-.68-2.08-1.07-3.13-.6,1.13-1.47,2.17-1.72,3.43Z"/>
        <path class="cls-8" d="m125.31,89.78c-.19,1.14.68,2.56,1.08,3.86.83-.99,1.66-1.99,2.95-3.53-.87-1.83-1.39-2.93-1.92-4.03-.74,1.22-1.88,2.34-2.11,3.7Z"/>
        <path class="cls-8" d="m136.76,102.41c.88,1.62,1.39,2.56,1.9,3.49.66-1.23,1.59-2.35,1.87-3.73.18-.85-.63-2.09-1-3.16-.76.92-1.51,1.85-2.77,3.39Z"/>
        <path class="cls-8" d="m143.71,108.22c-.07,1.19.7,2.31,1.1,3.46.61-1,1.55-1.91,1.74-3.02.2-1.21-.3-2.61-.49-3.93-.27-.04-.54-.09-.82-.13-.54,1.21-1.46,2.44-1.53,3.61Z"/>
        <path class="cls-8" d="m148.41,67.38c-1.56-.84-2.43,1.79-2.49,3.91-.05,1.6.81,3.06,1.27,4.58.93-1.05,1.86-2.1,3.34-3.77-.92-2.16-1.31-4.28-2.12-4.72Z"/>
        <path class="cls-8" d="m140.49,126.37c.58-.98,1.42-1.86,1.64-2.97.18-.86-.42-2.01-.91-4.01-.86,2.03-1.61,3.13-1.72,4.26-.08.89.62,1.81.98,2.72Z"/>
        <path class="cls-8" d="m133.38,117.76c-.13.84.56,2.69.97,2.66.61-.05,1.3-1.34,2.45-2.69-.86-1.48-1.34-2.31-1.82-3.15-.56,1.05-1.41,2.04-1.59,3.18Z"/>
        <path class="cls-8" d="m70.6,85.6c0,1.51.71,2.84,1.12,4.24.71-.83,1.41-1.66,2.57-3.02-.79-1.81-1.29-2.95-1.79-4.09-.67.97-1.9,2.07-1.9,2.87Z"/>
        <path class="cls-8" d="m68.34,122.75c.02,1.11.51,2.07.81,3.1.53-.61,1.07-1.23,1.98-2.27-.66-1.29-1.01-2.32-1.55-2.8-.16-.14-1.24,1.4-1.23,1.97Z"/>
        <path class="cls-8" d="m72.41,108.63c-.07.99.61,2.29,1.2,2.74.25.2,1.07-1.4,2-2.69-.71-1.32-1.18-2.19-1.65-3.07-.55,1.01-1.48,2.03-1.55,3.02Z"/>
        <path class="cls-8" d="m485.32,51.34c-.39-.09-.97.99-1.46,1.54.48.78.87,1.87,1.46,2.24.36.22,1.02-.67,2.19-1.55-1.08-1.17-1.57-2.1-2.19-2.24Z"/>
        <path class="cls-8" d="m491.53,56.55c-.24-.17-1.25,1.04-1.3,1.64-.11,1.21.2,2.42.33,3.64.38-.31.76-.63,1.13-.94.42-.69.83-1.38,1.25-2.06-.46-.8-.84-1.87-1.41-2.28Z"/>
        <path class="cls-8" d="m487.1,45.2c.58.89,1.08,2.05,1.78,2.54.25.17.98-1.27,1.49-1.97-.43-.95-.87-1.89-1.49-3.24-.81,1.21-1.29,1.94-1.78,2.66Z"/>
        <path class="cls-8" d="m479,46.11c-.4-.04-.96,1.31-1.45,2.04.52.68.98,1.72,1.59,1.93.45.16,1.11-.76,2.41-1.78-1.27-1.17-1.86-2.12-2.55-2.19Z"/>
        <path class="cls-8" d="m496.74,42.62c.16,1.23.84,2.46,1.52,2.93.36.24,1.2-1.13,1.82-1.78-.39-1.17-.78-2.33-1.7-5.05-.81,1.85-1.73,3.19-1.63,3.91Z"/>
        <path class="cls-8" d="m493.38,50.67c.54.8,1.01,1.93,1.67,2.25.32.16,1-1.19,1.51-1.85-.46-.97-.93-1.94-1.61-3.36-.7,1.32-1.14,2.14-1.57,2.96Z"/>
        <path class="cls-8" d="m497.59,66.02c.26.17.91-1,1.39-1.57-.31-.88-.62-1.75-1.13-3.19-.66,1.15-1.44,2.14-1.38,2.49.17.95.61,1.93,1.12,2.27Z"/>
        <path class="cls-8" d="m9.6,95.11c-.01,1.12.4,2.14.83,4.05.71-1.52,1.38-2.43,1.33-2.98-.1-1.1-.59-2.01-.91-2.99-.44.65-1.25,1.37-1.25,1.92Z"/>
        <path class="cls-8" d="m7.64,73.35c.22,1.33.75,2.48,1.31,3.46.07.12.99-1.23,1.99-2.49-.82-1.41-1.3-2.52-1.96-3.15-.14-.14-1.39,1.78-1.33,2.18Z"/>
        <path class="cls-8" d="m3.92,85.37c.02,1.27.39,2.44.8,4.58.78-1.68,1.47-2.61,1.43-3.22-.07-1.12-.57-2.05-.9-3.06-.47.57-1.34,1.26-1.33,1.7Z"/>
        <path class="cls-8" d="m1.95,63.87c.02,1.46.48,2.79.99,5.26.96-2.07,1.85-3.34,1.76-3.92-.22-1.41-.91-2.49-1.4-3.71-.48.8-1.36,1.71-1.35,2.37Z"/>
        <path class="cls-8" d="m25.08,101.13c-.01,1.08.43,2.06.92,4.07.71-1.95,1.38-3.06,1.31-3.77-.1-1.02-.75-1.74-1.16-2.59-.38.77-1.06,1.6-1.06,2.29Z"/>
        <path class="cls-8" d="m23.17,78.6c.04,1.33.64,2.47,1.01,3.69.57-.79,1.53-1.55,1.61-2.37.13-1.3-.32-2.64-.7-5.13-1.05,2-1.94,3.06-1.92,3.8Z"/>
        <path class="cls-8" d="m64.02,111.62c-.79,1.68-1.51,2.58-1.54,3.42-.05,1.11.42,2.17.67,3.25.56-.81,1.45-1.54,1.6-2.45.17-1.01-.34-2.2-.72-4.21Z"/>
        <path class="cls-8" d="m52.44,121.66c0,.97.49,1.82.77,2.72.54-.6,1.07-1.21,2.01-2.26-.76-1.21-1.21-1.95-1.67-2.69-.4.75-1.11,1.57-1.11,2.23Z"/>
        <path class="cls-8" d="m47.75,111.21c-.15-.14-1.25,1.38-1.23,1.89.05,1.15.52,2.13.83,3.18.54-.61,1.08-1.23,1.98-2.26-.68-1.3-1.03-2.32-1.58-2.82Z"/>
        <path class="cls-8" d="m59.44,108.07c-.61-1.43-1.03-2.41-1.46-3.4-.53.89-1.45,1.84-1.48,2.66-.04,1.1.62,2.09.98,3.13.53-.65,1.06-1.29,1.96-2.39Z"/>
        <path class="cls-8" d="m38.79,82.23c.09,1.47.56,2.92,1.13,3.95.13.24,1.28-1.25,2.51-2.5-.9-1.72-1.37-3.03-2.08-3.7-.2-.19-1.6,1.7-1.56,2.25Z"/>
        <path class="cls-3" d="m39.96,104.95c.75,1.32,1.18,2.33,1.77,2.92.12.12,1.24-1.48,1.2-1.96-.1-1.24-.58-2.29-.91-3.41-.54.65-1.08,1.29-2.06,2.45Z"/>
        <path class="cls-8" d="m140.87,86.79c.98,1.92,1.56,3.05,2.14,4.17.72-1.18,1.93-2.33,2.04-3.53.13-1.39-.7-2.82-1.11-4.23-.83.97-1.66,1.94-3.07,3.59Z"/>
        <path class="cls-8" d="m1.66,9.77c-.5,2.66.17,4.99,1.82,4.98.78,0,1.68-1.69,3.25-3.39-1.27-2.3-1.98-4.02-2.97-5.01-.22-.22-1.85,2.05-2.1,3.42Z"/>
        <path class="cls-8" d="m6.62,17.9c1.07,2.28,1.82,3.87,2.56,5.46.78-1.2,2.3-2.85,2.22-3.51-.26-2.01-1.05-3.79-1.87-5.27-.12-.22-1.5,1.68-2.91,3.31Z"/>
        <path class="cls-8" d="m13.76,1.72c-.78.06-2.06,2.05-2.42,3.53-.67,2.71.56,5.98,1.98,5.52.9-.29,1.77-1.9,2.31-2.52.24-4.09-.08-6.68-1.87-6.54Z"/>
        <path class="cls-8" d="m78.02,5.14c-1.94.04-2.59,2.58-2.98,5.25-.47,3.22.51,6.53,1.92,6.36,1.82-.22,2.62-2.48,2.95-5.34.43-3.6-.34-6.3-1.88-6.27Z"/>
        <path class="cls-8" d="m79.59,28.55c-1.69-.26-2.39,2.08-2.67,4.49-.31,2.67-.24,5.66,1.66,5.51.95-.08,2.01-2.27,2.76-3.18.1-3.82.12-6.53-1.75-6.82Z"/>
        <path class="cls-8" d="m83.98,12.75c-1.77-.82-2.55,2.37-2.97,4.95-.51,3.17.63,6.93,1.9,6.15,1.22-.74,2.26-2.87,4-5.22-1.25-2.64-1.84-5.37-2.94-5.88Z"/>
        <path class="cls-8" d="m73.65,20.96c-1.63-.16-2.45,1.92-2.73,4.51-.3,2.77-.19,5.4,1.64,5.81,1.85.42,2.42-2.18,2.89-4.68.12-2.72.13-5.46-1.8-5.65Z"/>
        <path class="cls-8" d="m63.4,28.96c-1.55-.78-2.35,1.76-2.61,4.24-.28,2.65.03,5.19,1.76,5,.89-.1,1.87-2.02,3.49-3.91-1.16-2.47-1.67-4.85-2.64-5.33Z"/>
        <path class="cls-8" d="m69.27,36.6c-1.39-.68-2.18,1.71-2.45,4.1-.31,2.68-.1,5.29,1.59,5.23.87-.03,1.9-2.18,3.48-4.15-1.1-2.31-1.64-4.7-2.62-5.18Z"/>
        <path class="cls-8" d="m67.68,13.19c-1.73.27-2.52,2.43-2.78,5.12-.27,2.81.05,5.63,1.82,5.48,1.01-.09,2.15-2.39,3.23-3.69,0-4.08-.92-7.11-2.27-6.91Z"/>
        <path class="cls-8" d="m61.91,5.67c-1.8-.18-2.57,2-2.98,4.6-.5,3.2.49,6.77,1.9,6.19,1.12-.46,2.15-2.47,2.67-3.11.61-4.85-.15-7.53-1.59-7.68Z"/>
        <path class="cls-8" d="m100.46,11.27c-1.32-.3-2.83,2.27-3.22,5.46-.41,3.4.47,6.3,1.97,6.22,1.96-.11,2.47-2.72,2.89-5.15.41-3.48-.31-6.23-1.64-6.53Z"/>
        <path class="cls-8" d="m101.84,35.1c-1.46-.64-2.4,1.83-2.71,4.38-.34,2.79-.18,5.67,1.67,5.57.91-.05,1.97-2.43,3.57-4.56-1.07-2.43-1.56-4.97-2.52-5.39Z"/>
        <path class="cls-8" d="m110.72,2.25c-1.98.08-2.71,2.56-2.93,4.14-.69,5.18.01,7.87,1.58,8.09,1.4.2,2.99-2.46,3.39-5.66.42-3.37-.54-6.64-2.04-6.58Z"/>
        <path class="cls-8" d="m106.4,18.74c-1.83-.41-2.6,2.24-3.08,5-.29,2.91-.19,5.79,1.66,6.19,1.78.38,2.7-2.22,3.07-5,.39-2.91.22-5.77-1.65-6.19Z"/>
        <path class="cls-8" d="m96.08,27.67c-1.5-.93-2.59,1.7-3,4.32-.43,2.74-.29,5.4,1.45,6.02,1.77.64,2.47-1.94,3.65-5.06-.68-1.84-1.09-4.67-2.1-5.29Z"/>
        <path class="cls-8" d="m94.37,3.95c-1.98.14-2.74,2.78-3.16,5.58-.48,3.26.49,6.27,1.96,6.26,2.05,0,2.59-2.82,3.09-5.02.41-3.84-.47-6.93-1.9-6.83Z"/>
        <path class="cls-8" d="m34.99,37.99c-.55,2.61-.02,5.1,1.67,5.07.72-.01,1.6-2.01,2.97-3.87-1.04-2.11-1.75-3.54-2.46-4.98-.75,1.25-1.88,2.34-2.18,3.78Z"/>
        <path class="cls-8" d="m35.6,11.85c-1.46-.29-2.31,1.54-2.59,4.07-.32,2.9.05,5.46,1.76,5.57.86.05,1.93-1.97,2.52-2.63.31-4.13.07-6.66-1.69-7.01Z"/>
        <path class="cls-8" d="m23.22,21.51c.09,2,.86,3.94,1.67,5.33.18.31,1.7-1.72,3.28-3.39-1.17-2.52-1.89-4.09-2.62-5.65-.83,1.26-2.38,2.78-2.34,3.71Z"/>
        <path class="cls-8" d="m29.12,30.07c.04,1.84,1.03,3.39,1.62,5.05.9-1.1,1.8-2.2,3.29-4.02-1.18-2.23-1.94-3.66-2.69-5.08-.79,1.37-2.24,2.94-2.21,4.05Z"/>
        <path class="cls-8" d="m29.53,3.93c-.98.35-1.9,2.21-2.52,2.98-.19,4.18.15,6.97,1.99,6.9.78-.03,2.14-2.38,2.52-4.03.73-3.09-.46-6.4-2-5.85Z"/>
        <path class="cls-8" d="m54.9,25.02c-.77,2.83.37,6.35,1.77,5.81,1.01-.39,1.95-2.23,3.58-4.23-1.15-2.44-1.93-4.09-2.71-5.75-.91,1.37-2.19,2.51-2.64,4.16Z"/>
        <path class="cls-8" d="m19.22,35.06c-.34,2.37.1,4.82,1.76,4.67.71-.07,1.51-1.8,2.84-3.53-1.12-2.02-1.88-3.4-2.64-4.78-.68,1.21-1.77,2.34-1.96,3.65Z"/>
        <path class="cls-8" d="m19.59,9.87c-.37-.28-2.1,2.1-2.36,3.54-.49,2.67.11,5.37,1.85,5.38.81,0,1.79-2.03,3.34-3.95-1.19-2.26-1.82-4.2-2.83-4.97Z"/>
        <path class="cls-8" d="m51.67,13.09c-1.06.62-2.3,2.63-2.79,4.44-.72,2.65.6,6.45,1.86,5.82,1.06-.53,2-2.46,3-3.77,0-3.87-.88-7.18-2.06-6.49Z"/>
        <path class="cls-8" d="m47.28,28.05c-.84.02-1.82,1.97-3.43,3.86,1.18,2.36,1.94,3.87,2.7,5.38.81-1.33,2.02-2.5,2.35-4.03.54-2.53.12-5.25-1.62-5.21Z"/>
        <path class="cls-8" d="m13.37,26.13c-.47,2.53-.03,5.07,1.62,5.31.69.1,1.6-1.49,3.09-2.99-1.08-2.26-1.65-4.06-2.56-5.01-.28-.29-1.94,1.56-2.15,2.69Z"/>
        <path class="cls-8" d="m50.82,39.72c-.53,2.46-.09,5.21,1.58,5.3.8.04,1.8-1.92,3.33-3.68-1.07-2.35-1.59-4.33-2.52-5.09-.36-.29-2.08,2.01-2.39,3.47Z"/>
        <path class="cls-8" d="m41.47,20.02c-1.35-.75-2.24,1.44-2.51,3.93-.31,2.85-.03,5.5,1.75,5.46.86-.02,1.88-2.17,3.44-4.1-1.14-2.39-1.68-4.74-2.68-5.29Z"/>
        <path class="cls-8" d="m45.7,5.31c-1.71-.06-2.4,1.94-2.68,4.51-.33,3-.1,5.87,1.85,5.77.96-.05,2.05-2.25,2.61-2.91.56-4.47-.34-7.32-1.77-7.37Z"/>
        <path class="cls-8" d="m90.02,20.16c-1.82-.34-2.63,2.4-3.04,5.04-.46,2.94.64,6.3,1.96,5.62,1.12-.58,2.1-2.6,3.13-3.99-.13-3.68-.32-6.34-2.05-6.67Z"/>
        <path class="cls-8" d="m492.78,15.4c-.57-.23-1.57,1.56-2.38,2.45.59,1.32,1.18,2.63,2.04,4.55,1.15-1.66,1.87-2.7,2.59-3.74-.73-1.15-1.35-2.89-2.25-3.25Z"/>
        <path class="cls-8" d="m370.63,3.53c-1.06.49-2.04,2-3.05,3.09.41,1.11.82,2.23,1.55,4.23,1.32-2,2.21-3.35,3.1-4.71-.54-.93-1.15-2.82-1.6-2.61Z"/>
        <path class="cls-8" d="m373.66,14.78c-1,.58-2.08,1.66-2.79,3.05-.34.67.1,2.48.19,3.78.5-.29.99-.59,1.49-.88.84-1.27,1.68-2.54,2.52-3.81-.48-.76-1.05-2.34-1.41-2.13Z"/>
        <path class="cls-8" d="m377.35,5.59c-1.08.52-2.09,1.91-3.13,2.96.4,1.07.8,2.15,1.54,4.11,1.32-1.97,2.2-3.29,3.09-4.62-.5-.88-1.08-2.66-1.5-2.46Z"/>
        <path class="cls-8" d="m367.18,12.68c-1.01.48-2,1.68-2.86,2.9-.12.17.48,2.02.98,4.02,1.39-1.85,2.28-3.03,3.18-4.21-.44-.96-.95-2.87-1.29-2.71Z"/>
        <path class="cls-8" d="m363.46,22.28c-.93.49-1.79,1.79-2.67,2.76.4.83.8,2.44,1.2,2.34.95-.24,1.9-1.29,3.52-2.52-1.06-1.4-1.63-2.8-2.05-2.58Z"/>
        <path class="cls-8" d="m356.81,20.3c-.94.51-1.88,1.65-2.61,2.92-.17.29.49,2.03.98,3.94,1.27-1.85,2.15-2.91,2.79-4.28.12-.25-.86-2.74-1.16-2.57Z"/>
        <path class="cls-8" d="m360.65,10.74c-1.05.55-2.07,1.79-2.99,3.03-.1.14.51,2.03,1.06,4.11,1.42-1.99,2.34-3.29,3.27-4.58-.45-.91-.99-2.74-1.34-2.56Z"/>
        <path class="cls-8" d="m389.96,10.6c-.75.02-1.59,1.3-2.39,2.04.5,1,.9,2.67,1.54,2.83.78.2,1.77-.87,2.67-1.39.06-.49.13-.99.19-1.48-.66-.72-1.28-2.02-2-2Z"/>
        <path class="cls-8" d="m350.96,11.76c-.12.28,1.11,2.91,1.43,2.68,1.11-.78,2.09-2.34,3.12-3.61-.44-1.07-.88-2.15-1.67-4.07-1.26,2.07-2.21,3.38-2.88,5Z"/>
        <path class="cls-8" d="m393.47,2.52c-.84.01-1.79,1.56-2.7,2.45.48,1.19.96,2.39,1.7,4.22,1.19-1.61,2-2.72,2.82-3.83-.6-1.02-1.14-2.85-1.82-2.84Z"/>
        <path class="cls-8" d="m394.09,16.3c.5.9.95,2.55,1.52,2.53.74-.03,1.57-1.38,2.36-2.16-.42-1.1-.83-2.19-1.52-4.02-1.07,1.65-1.71,2.65-2.35,3.65Z"/>
        <path class="cls-8" d="m380.05,16.71c-.86.43-1.65,1.74-2.47,2.68.51.8,1.01,2.33,1.55,2.24.83-.13,1.68-1.38,3.2-2.77-1.19-1.19-1.8-2.4-2.28-2.16Z"/>
        <path class="cls-8" d="m383.83,7.77c-1.02.21-2.05,1.27-3.08,1.99-.04.48-.08.95-.13,1.43.59.69,1.24,2.16,1.74,1.91,1-.51,1.91-1.97,2.86-3.04-.46-.81-.91-2.39-1.39-2.29Z"/>
        <path class="cls-8" d="m386.55,18.91c-.75.11-1.54,1.32-2.32,2.06.46.92.83,2.45,1.41,2.59.7.17,1.59-.86,2.39-1.36.06-.46.12-.92.18-1.37-.55-.69-1.09-1.99-1.67-1.91Z"/>
        <path class="cls-8" d="m340.79,19.44c-.1.21.98,2.74,1.27,2.54,1.06-.72,2.07-2.01,2.94-3.4.14-.23-.53-2.03-1.14-4.24-1.39,2.21-2.33,3.52-3.07,5.1Z"/>
        <path class="cls-8" d="m317.4,23.31c-.17.52,1.03,3.09,1.28,2.91,1.07-.81,2.12-2.13,2.93-3.65.19-.35-.6-2.23-1.28-4.61-1.37,2.38-2.37,3.68-2.93,5.35Z"/>
        <path class="cls-8" d="m317.68,5.74c-1.48-.52-2.92,1.02-3.26,3.81-.16,1.32.65,2.77.89,3.65,2.24-.03,3.63-1.07,3.8-4.07.07-1.23-.75-3.15-1.43-3.39Z"/>
        <path class="cls-8" d="m323.93,8.63c-1.39-.39-2.76,1.02-2.96,3.79-.09,1.28.67,2.53,1.38,4.96,1.49-2.54,2.44-4.17,3.4-5.8-.6-1.03-1.08-2.75-1.82-2.96Z"/>
        <path class="cls-8" d="m307.13,14.25c-1.48-.35-2.88,1.35-3.08,4.21-.09,1.27.75,2.5,1.51,4.79,1.41-2.38,2.57-3.76,3.12-5.57.21-.68-.84-3.26-1.56-3.43Z"/>
        <path class="cls-8" d="m310.72,20.9c-.17.46.68,2.75,1.31,3.01,1.4.57,2.75-.8,3.09-3.49.15-1.23-.57-2.57-1.22-5.17-1.48,2.51-2.52,3.89-3.18,5.65Z"/>
        <path class="cls-8" d="m326.92,22.22c-1.06.71-2.09,1.94-2.95,3.32-.17.26.47,2.08,1.03,4.36,1.43-2.19,2.39-3.45,3.12-5.01.12-.26-.93-2.84-1.19-2.66Z"/>
        <path class="cls-8" d="m310.91,2.77c-1.64-.05-2.9,1.57-3.11,4.33-.11,1.34.78,2.67,1.59,5.17,1.51-2.57,2.83-3.98,3.33-5.87.63-2.41-.48-3.58-1.81-3.62Z"/>
        <path class="cls-8" d="m337.15,13.71c-1.08.6-2.16,1.96-2.99,3.43-.2.35.53,2.3,1.13,4.69,1.5-2.33,2.45-3.8,3.4-5.27-.52-1.01-1.14-3.05-1.53-2.84Z"/>
        <path class="cls-8" d="m341.01,3.49c-1.16.59-2.32,1.93-3.28,3.39-.17.27.6,2.5,1.21,4.85,1.51-2.13,2.6-3.39,3.4-5.05.15-.32-.97-3.37-1.33-3.19Z"/>
        <path class="cls-8" d="m397.28,8.44c.54.97,1.04,2.77,1.63,2.7.88-.1,1.83-1.5,2.75-2.35-.47-1.2-.93-2.4-1.68-4.3-1.15,1.67-1.92,2.81-2.7,3.95Z"/>
        <path class="cls-8" d="m347.33,5.97c-1.08.49-2.08,2.11-3.11,3.28.4,1.24.8,2.47,1.51,4.67,1.4-2.12,2.32-3.51,3.23-4.89-.55-1.09-1.17-3.27-1.63-3.06Z"/>
        <path class="cls-8" d="m330.54,11.19c-1.42-.42-2.77.98-3.01,3.71-.1,1.22.73,2.45,1.52,4.81,1.36-2.52,2.34-4,2.99-5.79.14-.38-.84-2.53-1.5-2.73Z"/>
        <path class="cls-8" d="m333.43,24.4c-1.01.64-2.01,1.81-2.8,3.15-.18.31.48,2.12.99,4.22,1.33-2.01,2.27-3.19,2.96-4.69.13-.29-.89-2.85-1.15-2.68Z"/>
        <path class="cls-8" d="m350.24,18.21c-1.01.56-1.91,2.06-2.86,3.17.47.93.95,2.74,1.42,2.61,1.02-.28,2.03-1.54,3.75-2.99-1.18-1.5-1.84-3.05-2.31-2.79Z"/>
        <path class="cls-8" d="m303.33,26.13c-1.07.82-2.17,2.07-2.93,3.63-.25.52.46,2.39.98,4.82,1.47-2.29,2.56-3.51,3.16-5.18.21-.59-1.01-3.43-1.21-3.27Z"/>
        <path class="cls-8" d="m464.28,5.68c-.66-.25-1.67,1.31-2.53,2.07.55,1.34,1.09,2.69,1.85,4.55,1.27-1.53,2.05-2.48,2.84-3.42-.7-1.13-1.29-2.87-2.15-3.19Z"/>
        <path class="cls-8" d="m461.12,13.03c-.72-.15-1.67,1.21-2.52,1.91.47,1.27.93,2.55,1.64,4.48,1.21-1.62,1.94-2.6,2.68-3.59-.59-1-1.09-2.66-1.8-2.8Z"/>
        <path class="cls-8" d="m465.03,19.08c.57,1.04,1.03,2.77,1.73,2.91.69.14,1.62-1.32,2.45-2.08-.51-1.15-1.02-2.31-1.78-4.01-1.02,1.35-1.71,2.27-2.4,3.18Z"/>
        <path class="cls-8" d="m470.62,9.83c-.69-.16-1.64,1.34-2.48,2.1.57,1.31,1.13,2.62,1.96,4.55,1.19-1.74,1.91-2.79,2.63-3.84-.7-1-1.29-2.62-2.12-2.82Z"/>
        <path class="cls-8" d="m451.31,16.32c-.68-.11-1.57,1.29-2.37,2.03.5,1.14,1,2.28,1.76,4,1.04-1.46,1.72-2.41,2.39-3.36-.58-.95-1.08-2.55-1.78-2.67Z"/>
        <path class="cls-8" d="m454.71,8.96c-.74-.12-1.7,1.3-2.56,2.05.53,1.23,1.05,2.46,1.84,4.29,1.19-1.59,1.93-2.59,2.68-3.58-.64-.98-1.2-2.63-1.95-2.75Z"/>
        <path class="cls-8" d="m458.11,1.69c-.8-.15-1.85,1.35-2.78,2.12.56,1.38,1.11,2.76,1.95,4.82,1.28-1.72,2.09-2.82,2.91-3.92-.68-1.08-1.26-2.87-2.07-3.02Z"/>
        <path class="cls-8" d="m480.84,20.58c.67,1.12,1.23,2.89,2.06,3.16.61.2,1.59-1.56,2.4-2.45-.61-1.23-1.21-2.46-2.08-4.23-1.02,1.51-1.7,2.51-2.37,3.52Z"/>
        <path class="cls-8" d="m445.63,7.3c.69,1.07,1.27,2.78,2.11,3.02.69.19,1.67-1.36,2.53-2.14-.47-1.31-.95-2.62-1.65-4.55-1.29,1.58-2.14,2.63-2.99,3.67Z"/>
        <path class="cls-8" d="m484.03,13.11c.71,1.22,1.27,3.04,2.16,3.45.61.28,1.66-1.39,2.52-2.18-.52-1.39-1.04-2.78-1.76-4.71-1.33,1.56-2.13,2.5-2.93,3.44Z"/>
        <path class="cls-8" d="m490.02,3.45c-.75-.22-1.87,1.67-2.82,2.62.66,1.43,1.32,2.86,2.26,4.9,1.21-1.68,2.02-2.81,2.83-3.93-.74-1.28-1.35-3.31-2.27-3.59Z"/>
        <path class="cls-8" d="m476.91,14.13c-.64-.18-1.59,1.41-2.4,2.21.59,1.2,1.19,2.39,2.04,4.11,1.04-1.46,1.71-2.41,2.39-3.36-.66-1.05-1.22-2.73-2.02-2.96Z"/>
        <path class="cls-8" d="m477.72,8.76c.76,1.17,1.39,2.9,2.32,3.32.61.28,1.64-1.32,2.48-2.07-.61-1.43-1.21-2.86-2.02-4.76-1.21,1.53-2,2.52-2.78,3.51Z"/>
        <path class="cls-8" d="m474.09,2.34c-.8-.12-1.85,1.69-2.8,2.65.61,1.29,1.23,2.58,2.15,4.52,1.21-1.69,1.99-2.78,2.76-3.87-.7-1.18-1.29-3.17-2.12-3.3Z"/>
        <path class="cls-8" d="m426.49,14.5c.55.98,1.03,2.73,1.67,2.73.76,0,1.65-1.47,2.48-2.31-.49-1.07-.99-2.14-1.74-3.77-1.03,1.42-1.72,2.38-2.41,3.35Z"/>
        <path class="cls-8" d="m416.19,5.2c-.83-.04-1.82,1.47-2.74,2.31.52,1.15,1.04,2.29,1.75,3.87,1.13-1.31,1.94-2.25,2.75-3.2-.58-1.07-1.08-2.95-1.77-2.99Z"/>
        <path class="cls-8" d="m419.03,16.4c-.67-.07-1.52,1.42-2.3,2.22.41,1.02.81,2.04,1.44,3.61,1.06-1.31,1.79-2.22,2.52-3.12-.55-.97-1.01-2.64-1.66-2.71Z"/>
        <path class="cls-8" d="m410.27,14.95c.59.99,1.09,2.62,1.81,2.77.62.13,1.49-1.43,2.25-2.24-.43-1.08-.87-2.15-1.51-3.75-1.1,1.39-1.83,2.31-2.55,3.22Z"/>
        <path class="cls-8" d="m422.42,8.72c-.73-.07-1.65,1.44-2.48,2.25.5,1.17.99,2.34,1.72,4.04,1.09-1.49,1.85-2.52,2.6-3.54-.6-.98-1.13-2.68-1.83-2.75Z"/>
        <path class="cls-8" d="m409.5,1.76c-.72-.13-1.67,1.42-2.52,2.24.54,1.22,1.09,2.43,1.86,4.17,1.18-1.56,1.95-2.56,2.71-3.57-.68-1.01-1.26-2.69-2.05-2.84Z"/>
        <path class="cls-8" d="m442.47,14.65c.57.98,1.06,2.71,1.74,2.76.78.06,1.72-1.33,2.6-2.1-.48-1.19-.96-2.38-1.68-4.16-1.13,1.49-1.89,2.49-2.65,3.5Z"/>
        <path class="cls-8" d="m403.74,11.51c.6,1.03,1.1,2.67,1.85,2.91.72.23,1.71-.99,2.58-1.57.06-.57.11-1.14.17-1.71-.74-.63-1.46-1.77-2.24-1.73-.74.04-1.56,1.35-2.35,2.1Z"/>
        <path class="cls-8" d="m423.17,3.57c.67,1.04,1.25,2.84,2.04,2.92.78.08,1.76-1.55,2.65-2.44-.53-1.13-1.06-2.27-1.85-3.96-1.16,1.42-1.99,2.45-2.83,3.48Z"/>
        <path class="cls-8" d="m435.21,16.25c-.65-.11-1.51,1.26-2.28,1.98.46,1.06.91,2.11,1.59,3.67,1.02-1.31,1.67-2.15,2.32-2.98-.53-.95-.98-2.56-1.63-2.67Z"/>
        <path class="cls-8" d="m441.94,1.35c-.78-.1-1.76,1.51-2.66,2.36.56,1.21,1.12,2.41,1.94,4.18,1.22-1.57,2.05-2.63,2.87-3.69-.71-1.02-1.33-2.75-2.15-2.85Z"/>
        <path class="cls-8" d="m438.63,8.64c-.72-.13-1.65,1.33-2.49,2.09.47,1.17.94,2.34,1.64,4.09,1.16-1.45,1.93-2.4,2.7-3.36-.61-1-1.12-2.69-1.85-2.81Z"/>
        <path class="cls-8" d="m429.63,7.1c.67,1.06,1.24,2.8,2.04,2.99.7.16,1.67-1.44,2.53-2.27-.54-1.25-1.09-2.51-1.84-4.22-1.17,1.49-1.95,2.5-2.73,3.5Z"/>
        <path class="cls-8" d="m400.55,19.4c.46.92.88,2.66,1.37,2.59.82-.12,1.67-1.4,2.51-2.2-.4-.98-.81-1.96-1.44-3.49-1.04,1.32-1.74,2.21-2.45,3.1Z"/>
        <path class="cls-8" d="m157.32,34.88c-1.73-.79-2.72,2.04-3.1,4.73-.38,2.7-.16,5.49,1.65,5.75,1.83.27,2.59-2.33,3.56-5.85-.69-1.61-1.16-4.2-2.11-4.63Z"/>
        <path class="cls-10" d="m179.93,37.63c-1.7-.37-2.66,2.18-3,5.04-.32,2.7-.06,5.51,1.68,5.07,1.11-.28,2.22-2.86,3.91-5.22-1.15-2.3-1.71-4.69-2.59-4.88Z"/>
        <path class="cls-8" d="m173.84,31.79c-1.76-.81-2.68,1.9-3.06,4.72-.38,2.8-.19,5.82,1.59,5.68,1.07-.08,2.28-2.68,4.05-4.96-1.12-2.5-1.62-5-2.59-5.44Z"/>
        <path class="cls-8" d="m178.21,15.16c-1.89-.16-2.77,2.36-3.24,5.53-.21,2.59-.29,5.35,1.57,6.08,1.49.58,3.16-2.12,3.51-5.75.28-2.85.11-5.7-1.84-5.87Z"/>
        <path class="cls-8" d="m172.13,8.36c-1.54-.08-3.03,2.66-3.34,6.31-.25,2.9,0,5.52,1.84,6.07,1.43.43,3.08-2.65,3.46-6.13.38-3.53-.45-6.18-1.96-6.25Z"/>
        <path class="cls-8" d="m158.43,24c-.23,2.84-.04,6.1,1.89,5.74,1.17-.22,2.38-2.93,4.17-5.31-1.18-2.72-1.74-5.13-2.81-6.18-1.02-1-3,2.58-3.25,5.76Z"/>
        <path class="cls-8" d="m166.31,1.56c-1.45-.32-3.15,2.43-3.61,5.87-.47,3.51.35,6.62,1.82,6.89,1.53.28,3.17-2.37,3.61-5.84.45-3.53-.35-6.6-1.82-6.93Z"/>
        <path class="cls-8" d="m167.71,25.05c-2.01-.21-2.77,2.72-3.12,5.5-.31,2.54-.09,5.14,1.63,5.45,2.05.37,2.67-2.51,3.23-5.31.2-2.74.13-5.45-1.74-5.64Z"/>
        <path class="cls-8" d="m181.1,27.01c-.24,2.65-.02,5.19,1.79,5.13,2.03-.07,2.82-2.9,3.57-7.29-.45-.99-.98-3.21-1.96-3.98-1.17-.91-3.08,2.72-3.39,6.14Z"/>
        <path class="cls-8" d="m193.56,37.68c.33.75.76,3.06,1.61,3.39,1.9.74,2.99-2.14,3.19-4.93.12-1.66-.52-4.01-1.3-4.77-1.09-1.05-2.91,1.95-3.5,6.3Z"/>
        <path class="cls-8" d="m195.24,9.62c-1.43-.52-3.17,2.37-3.53,5.96-.26,2.66-.21,5.52,1.74,5.62,2.05.11,2.84-2.73,3.42-5.66.25-2.81.11-5.28-1.63-5.92Z"/>
        <path class="cls-8" d="m203.25,35.76c-1.68-.45-2.72,1.96-3.13,4.81-.35,2.42-.09,4.5,1.44,4.7,1.85.24,2.6-2.28,3.47-6.02-.44-.94-.93-3.26-1.78-3.49Z"/>
        <path class="cls-8" d="m198.07,20.65c0,1.88.66,4.29,1.52,5.11,1.15,1.1,3.04-2.04,3.7-6.81-.38-.83-.9-3.01-1.88-3.81-1.13-.92-3.33,2.54-3.34,5.51Z"/>
        <path class="cls-8" d="m190.67,26.4c-1.82-.43-2.85,2.32-3.22,5.19-.32,2.52-.12,5.66,1.59,5.18,1.25-.35,2.47-3.09,4.32-5.59-1.21-2.27-1.79-4.57-2.69-4.78Z"/>
        <path class="cls-8" d="m189.03,4c-1.38-.14-3.14,2.9-3.58,6.17-.49,3.73.2,6.21,1.78,6.34,1.48.12,3.13-2.63,3.62-6.01.46-3.23-.42-6.36-1.82-6.5Z"/>
        <path class="cls-8" d="m112.36,26.11c-1.78-.94-2.68,2.14-3.02,4.77-.33,2.59-.32,5.49,1.54,5.91,1.91.43,2.55-2.32,3.71-5.69-.73-1.74-1.21-4.45-2.23-4.99Z"/>
        <path class="cls-8" d="m122.7,16.59c-1.85.14-2.71,2.62-3.06,5.25-.36,2.73-.36,5.6,1.56,6.3,1.38.51,2.9-1.92,3.34-5.1.44-3.18-.46-6.55-1.84-6.45Z"/>
        <path class="cls-8" d="m124.19,40.35c-1.47-.66-2.45,1.94-2.75,4.37-.33,2.69-.18,5.72,1.69,5.57.93-.08,2-2.49,3.59-4.65-1.06-2.34-1.56-4.86-2.53-5.29Z"/>
        <path class="cls-8" d="m300.8,11.19c-1.27-.66-3.43,2.15-3.3,4.33.08,1.41,1.08,3.55,1.66,3.39,1.16-.31,2.32-1.95,3.48-3.05.05-.56.1-1.13.15-1.69-.65-1.03-1.18-2.57-1.98-2.99Z"/>
        <path class="cls-8" d="m116.76,9.51c-1.97.13-2.71,2.61-3.11,5.54-.46,3.6.27,6.56,1.73,6.44,1.93-.16,2.74-2.59,3.12-5.54.46-3.54-.31-6.54-1.75-6.44Z"/>
        <path class="cls-8" d="m133.16,7.08c-1.38-.1-2.96,2.77-3.31,6.01-.37,3.39.5,6.46,1.94,6.32,2.06-.2,2.78-2.97,3.26-5.47.42-3.67-.52-6.76-1.89-6.86Z"/>
        <path class="cls-8" d="m118.13,33.33c-1.03.16-2.13,2.53-3.83,4.73,1.22,2.51,1.82,5.15,2.85,5.51,1.58.54,2.45-2.25,2.74-4.86.31-2.77.1-5.67-1.76-5.38Z"/>
        <path class="cls-8" d="m128.8,23.78c-1.32-.44-2.94,2.24-3.19,5.34-.23,2.83-.05,5.77,1.89,5.84,1.79.07,2.53-2.56,2.92-5.74.2-2.32.16-4.86-1.63-5.45Z"/>
        <path class="cls-8" d="m149.75,4.46c-1.48-.46-2.99,2.35-3.42,6.04-.44,3.78.37,6.61,1.92,6.67,1.44.06,3.12-2.94,3.4-6.31.24-2.98.05-5.8-1.89-6.4Z"/>
        <path class="cls-8" d="m151.24,28.31c-1.77-.88-2.61,2.03-2.98,4.77-.36,2.71-.37,5.46,1.5,5.84,1.88.38,2.56-2.34,3.71-5.72-.73-1.7-1.22-4.38-2.23-4.89Z"/>
        <path class="cls-8" d="m142.11,26.88c-.31,2.81-.15,5.38,1.71,5.58,2,.21,2.64-2.61,3.18-5.45.09-2.78.02-5.81-1.9-5.85-1.86-.04-2.67,2.77-2.99,5.72Z"/>
        <path class="cls-8" d="m139.27,14.27c-1.46-.43-2.88,2.12-3.38,6.38-.17,2.19-.03,4.82,1.8,5.44,1.43.48,3-2.24,3.31-5.68.25-2.81.2-5.58-1.73-6.14Z"/>
        <path class="cls-8" d="m140.76,37.84c-1.6-.77-2.47,1.84-2.85,4.47-.4,2.79-.28,5.69,1.52,5.63.97-.03,2.11-2.47,3.76-4.56-1.04-2.51-1.49-5.08-2.43-5.54Z"/>
        <path class="cls-8" d="m134.67,30.77c-1.83-.1-2.63,2.42-2.97,5.23-.35,2.86-.04,5.75,1.72,5.52,1.08-.14,2.26-2.73,3.4-4.22-.3-3.53-.23-6.43-2.15-6.53Z"/>
        <path class="cls-8" d="m155.74,11.43c-1.33-.5-2.95,2.37-3.39,5.71-.42,3.25.47,6.54,1.88,6.39,2.07-.22,2.83-2.84,3.27-6.26.26-2.62.05-5.17-1.76-5.85Z"/>
        <path class="cls-8" d="m271.13,10.47c-1.4-.79-3.42,1.79-3.44,4.53-.01,1.57.72,3.58,1.51,4.21,1.16.94,3.18-1.99,3.71-5.92-.39-.66-.93-2.34-1.78-2.82Z"/>
        <path class="cls-7" d="m263.79,27.99c-.11,1.35.69,3.63,1.38,3.85,1.61.5,2.95-1.51,3.24-4.39.15-1.45-.54-2.94-.78-4.07-2.26.19-3.61,1.72-3.84,4.61Z"/>
        <path class="cls-8" d="m274.17,18.51c-.08,1.36.78,3.53,1.51,3.76,1.62.51,2.82-1.41,3.59-5.6-.47-.75-1.06-2.64-1.89-2.79-1.63-.31-3.04,1.71-3.21,4.63Z"/>
        <path class="cls-8" d="m272.89,26.08c-.89,1.74-1.98,3.33-2.55,5.29-.2.7.71,3.05,1.37,3.27,1.55.52,2.82-1.32,3.06-4.08.12-1.42-.58-2.84-.91-4.27-.32-.07-.64-.14-.97-.21Z"/>
        <path class="cls-8" d="m264.56,6.39c-1.9-.16-2.93,2.18-3.37,5.05-.36,2.41.18,4.32,1.68,4.42,1.82.13,2.93-1.77,3.39-4.31.44-3.3-.14-5.04-1.7-5.17Z"/>
        <path class="cls-8" d="m258.31,2.3c-1.53-.27-3.22,2.23-3.54,5.3-.27,2.6.1,4.49,1.44,4.71,1.92.24,3.59-2.12,3.87-5.22.23-2.51-.14-4.52-1.77-4.8Z"/>
        <path class="cls-8" d="m260.51,20.08c-1.69-.44-2.98,1.83-3.17,4.57-.1,1.45.75,3.89,1.49,4.1,1.62.47,2.73-1.7,3.43-5.91-.4-.68-.94-2.56-1.75-2.77Z"/>
        <path class="cls-8" d="m287.76,4.7c-1.59-.27-2.89,1.46-3.27,4.54-.32,2.61.32,4.17,1.82,4.13,1.74-.05,2.75-1.94,3.42-6.04-.5-.72-1.13-2.49-1.98-2.63Z"/>
        <path class="cls-8" d="m290.27,20.44c-1.11.72-2.2,2.38-2.97,4.08-.21.46.82,3.58,1.19,3.44,1.2-.46,2.35-1.86,3.52-2.9.06-.61.12-1.23.17-1.84-.65-1-1.45-3.08-1.91-2.78Z"/>
        <path class="cls-8" d="m277.94,5.98c-.19,2.51.38,4.09,1.89,4.19,1.52.11,3.45-2.49,3.39-5.01-.04-1.73-.81-3.22-1.26-4.82-2.19.5-3.81,2.81-4.02,5.63Z"/>
        <path class="cls-8" d="m207.57,20.1c-1.44-.71-3,2.15-3.26,5.57-.19,2.45,0,4.98,1.67,4.88,1.93-.11,2.93-2.63,3.48-7.36-.38-.67-.96-2.64-1.89-3.09Z"/>
        <path class="cls-8" d="m294.23,8.05c-1.7.02-2.84,1.58-3.41,5.77.43.64.99,2.33,1.77,2.49,1.61.32,2.92-1.37,3.36-4.38.35-2.43-.32-3.89-1.72-3.88Z"/>
        <path class="cls-8" d="m280.79,21.5c-.07,1.33.98,3.76,1.43,3.59,1.2-.44,2.34-2.04,4.22-3.87-1.25-2.02-1.8-3.84-2.59-4-1.51-.3-2.92,1.44-3.07,4.28Z"/>
        <path class="cls-8" d="m250.72,22.52c.37.66.94,2.77,1.78,2.93,1.62.31,2.83-1.97,3.26-4.74.37-2.4-.16-4.46-1.65-4.48-1.66-.02-2.82,1.78-3.4,6.29Z"/>
        <path class="cls-8" d="m293.85,27.45c-.17.6.84,2.84,1.52,3.01,1.43.34,2.72-1.31,2.9-3.99.09-1.27-.71-2.49-1.49-4.96-1.37,2.64-2.41,4.12-2.93,5.94Z"/>
        <path class="cls-8" d="m218.21,9.14c-1.87-.14-2.85,2.19-3.3,5.16-.42,2.77-.35,5.26,1.51,5.79,1.41.4,3.16-2.33,3.6-5.57.09-2.47.11-5.23-1.8-5.38Z"/>
        <path class="cls-8" d="m226.54,33.36c-1.76-.56-2.57,2.15-3.41,5.96.48.8,1.03,2.65,1.86,2.88,1.79.5,2.88-2.13,3.04-4.77.09-1.46-.75-3.84-1.49-4.08Z"/>
        <path class="cls-8" d="m224.51,13.94c-1.31-.74-3.11,2.45-3.39,5.52-.23,2.55.07,4.61,1.74,4.83,1.53.2,3.05-2.4,3.58-7.19-.39-.69-.98-2.62-1.93-3.15Z"/>
        <path class="cls-8" d="m220.28,29.25c-1.87-.5-2.97,2.2-3.12,5.08-.08,1.54.57,3.71,1.31,4.32,1.16.95,2.94-1.97,3.5-6.33-.34-.67-.86-2.85-1.69-3.07Z"/>
        <path class="cls-8" d="m210.73,29.59c-.29,2.5-.12,5.33,1.5,4.9,1.24-.33,2.47-2.76,4.29-4.97-1.09-2.31-1.58-4.25-2.47-4.98-1.12-.92-2.98,2.1-3.32,5.05Z"/>
        <path class="cls-8" d="m212.05,4.07c-1.56-.2-3.18,2.45-3.57,5.92-.32,2.85-.03,5.19,1.76,5.63,1.45.35,3.19-2.63,3.61-5.92.38-2.99-.41-5.45-1.79-5.62Z"/>
        <path class="cls-2" d="m237.1,22.64c-1.68-.4-2.77,1.84-3.18,4.71-.35,2.43.06,4.28,1.53,4.65,1.43.37,2.96-2.06,3.5-6.6-.38-.61-.98-2.56-1.85-2.77Z"/>
        <path class="cls-8" d="m243.47,26.56c-1.67-.32-2.7,2.02-3.33,6.25.44.66,1.03,2.47,1.86,2.63,1.76.34,2.93-2.2,3.09-4.89.08-1.45-.87-3.85-1.62-3.99Z"/>
        <path class="cls-8" d="m247.89,12.29c-1.39-.9-3.16,1.95-3.51,5.13-.27,2.5.12,4.38,1.62,4.54,1.9.2,2.84-2.08,3.67-6.26-.43-.88-.91-2.85-1.79-3.41Z"/>
        <path class="cls-8" d="m241.5,8c-1.21-.89-3.21,2.29-3.56,5.22-.31,2.63.16,4.53,1.65,5.02,1.39.46,3.22-2.35,3.79-6.72-.4-.79-.93-2.82-1.87-3.51Z"/>
        <path class="cls-8" d="m235.06,3.41c-1.6-.12-3.55,2.77-3.48,5.93.04,1.83.86,4.13,1.77,4.8,1.26.93,3.44-2.71,3.63-5.69.17-2.62-.1-4.88-1.93-5.04Z"/>
        <path class="cls-8" d="m249.94,30.35c-1.13.33-2.23,2.22-4.03,4.16,1.13,2.07,1.59,3.86,2.34,4.1,1.57.5,2.69-1.34,3.11-4.16.35-2.3.03-4.53-1.42-4.1Z"/>
        <path class="cls-8" d="m230.88,18.32c-1.75-.44-2.91,2.17-3.35,5.12-.35,2.33-.05,4.35,1.47,4.79,1.41.4,3.07-1.99,3.68-6.32-.39-.83-.91-3.35-1.8-3.58Z"/>
        <path class="cls-8" d="m69.07,3.01c-.33,3.11,0,6.29,1.9,6.21,1.09-.04,2.36-2.81,3.55-4.36,0-1.88-.2-3.57-.54-4.85h-4.31c-.29.86-.48,1.88-.6,2.99Z"/>
        <path class="cls-8" d="m81.13,1.69c1.01.03,1.75-.63,2.29-1.67h-3.83c.33,1.05.85,1.65,1.54,1.67Z"/>
        <path class="cls-8" d="m64.95,2.1c1.16.03,1.93-.79,2.46-2.08h-4.14c.36,1.23.95,2.06,1.69,2.08Z"/>
        <path class="cls-8" d="m53.1,1.22c-.61,4.6.34,7.95,1.75,7.98,1.73.05,2.59-2.06,3.01-4.7.25-1.56.15-3.22-.17-4.49h-3.77c-.33.49-.61.94-.82,1.2Z"/>
        <path class="cls-8" d="m37.07,2.2c-.31,2.94.02,5.84,1.87,5.75.98-.05,2.11-2.4,3.17-3.71-.04-1.69-.15-3.11-.39-4.22h-4.28c-.17.68-.29,1.42-.37,2.18Z"/>
        <path class="cls-8" d="m85.21,2.05c-.55,3.25.48,6.63,1.89,6.86,1.35.22,3.01-2.67,3.36-5.83.12-1.09.11-2.14,0-3.07h-4.84c-.17.65-.3,1.35-.42,2.03Z"/>
        <path class="cls-8" d="m33.07.3c.18-.02.37-.14.56-.29h-1.57c.28.22.61.33,1,.29Z"/>
        <path class="cls-8" d="m48.98,1.8c1.03.03,1.69-.71,2.17-1.78h-3.83c.38,1.07.96,1.77,1.67,1.78Z"/>
        <path class="cls-8" d="m136.22,3.61c1.18.09,2.33-1.35,3.01-3.59h-5.15c.23,2.1,1,3.51,2.13,3.59Z"/>
        <path class="cls-8" d="m97.48.46c.42.05.84-.12,1.23-.44h-2.12c.26.25.56.41.88.44Z"/>
        <path class="cls-8" d="m140.23,3.85c-.4,3.73.46,6.92,1.99,6.65,2.12-.36,2.98-3.1,3.36-6.37.18-1.57.14-2.99-.1-4.11h-4.33c-.44,1.06-.77,2.37-.92,3.83Z"/>
        <path class="cls-8" d="m123.81,6.14c-.26,2.99-.04,5.79,1.82,6.59,1.36.58,3.14-2.52,3.57-5.93.44-3.48-.42-6.54-1.88-6.77h-.38c-1.41.22-2.85,2.84-3.14,6.12Z"/>
        <path class="cls-8" d="m119.7,5.75c1.54.28,3-2.13,3.49-5.73h-5.49c-.17,3.02.65,5.49,2.01,5.73Z"/>
        <path class="cls-8" d="m101.52.72c-.49,3.57.33,6.7,1.76,6.97,1.56.3,3.01-2.19,3.46-5.99.07-.58.11-1.14.12-1.69h-5.24c-.04.23-.07.46-.11.7Z"/>
        <path class="cls-8" d="m152.54,1.3c.69.09,1.37-.39,1.96-1.28h-3.37c.34.74.82,1.2,1.41,1.28Z"/>
        <path class="cls-8" d="m7.25,2.78c1.31.44,2.08-.86,2.53-2.77h-4.25c.22,1.48.72,2.43,1.72,2.77Z"/>
        <path class="cls-8" d="m21.02.42c-.36,2.72.94,6.16,2.23,5.54,1-.48,1.89-2.29,2.36-2.89.12-1.15.14-2.16.1-3.05h-4.62c-.02.13-.05.26-.06.4Z"/>
        <path class="cls-8" d="m400.51.72c.68.99,1.28,2.72,2.06,2.78.81.06,1.8-1.49,2.71-2.34-.17-.37-.35-.75-.53-1.15h-3.71c-.18.24-.36.47-.53.7Z"/>
        <path class="cls-8" d="m156.59.83c-.48,3.54.52,6.91,2.09,7.01,1.52.1,3.02-2.58,3.49-6.2.07-.55.11-1.1.12-1.63h-5.55c-.05.27-.1.54-.14.81Z"/>
        <path class="cls-8" d="m396,1.71c.47-.64.87-1.18,1.24-1.69h-2.03c.24.51.5,1.06.79,1.69Z"/>
        <path class="cls-8" d="m175.07,4.92c1.38.19,2.81-1.94,3.44-4.9h-5.52c-.03,2.81.74,4.72,2.08,4.9Z"/>
        <path class="cls-4" d="m126.95.02h.38s-.03-.01-.05-.01c-.11-.01-.22,0-.32.01Z"/>
        <path class="cls-8" d="m416.66.04c.54,1.24,1.09,2.49,1.9,4.33,1.25-1.55,2.08-2.59,2.92-3.63-.13-.22-.26-.47-.39-.73h-4.41s-.02.02-.03.03Z"/>
        <path class="cls-8" d="m448.84.17c.56,1.37,1.12,2.74,1.99,4.88,1.33-1.84,2.18-3.02,3.04-4.21-.16-.24-.31-.53-.46-.82h-4.41c-.05.05-.11.1-.16.15Z"/>
        <path class="cls-8" d="m460.57,1.71c.5-.63.93-1.18,1.34-1.7h-2.24c.3.52.62,1.07.91,1.7Z"/>
        <path class="cls-8" d="m464.96.55c.57,1.45,1.13,2.9,1.92,4.9,1.36-1.58,2.22-2.6,3.09-3.61-.32-.54-.62-1.21-.93-1.82h-3.55c-.18.19-.36.38-.53.53Z"/>
        <path class="cls-8" d="m434.54,4.6c1.34-1.69,2.23-2.82,3.13-3.96-.1-.19-.2-.4-.3-.62h-4.39c.43,1.27.88,2.58,1.56,4.58Z"/>
        <path class="cls-8" d="m428.23.94c.27-.33.52-.63.76-.93h-1.12c.12.3.24.6.37.93Z"/>
        <path class="cls-8" d="m476.79,2.59c.76-1.02,1.36-1.83,1.91-2.57h-3.15c.36.75.76,1.58,1.23,2.57Z"/>
        <path class="cls-8" d="m492.71,3.95c1.24-1.66,2.1-2.82,2.93-3.93h-4.63c.49,1.12,1.02,2.35,1.7,3.93Z"/>
        <path class="cls-8" d="m480.79,1.83c.82,1.14,1.53,3,2.49,3.21.82.17,1.92-1.56,2.9-2.45-.39-.81-.79-1.63-1.25-2.57h-2.8c-.48.65-.91,1.23-1.35,1.81Z"/>
        <path class="cls-8" d="m177,99.06c-.15.84.7,1.97,1.1,2.97.73-1.31,1.66-2.49,2.11-4,.23-.8-.39-2.18-.63-3.3-.28-.02-.55-.04-.83-.07-.61,1.45-1.47,2.84-1.74,4.39Z"/>
        <path class="cls-8" d="m202.56,59.94c-.29,1.05.71,2.9,1.13,4.39,1.04-1.27,2.07-2.53,3.59-4.38-.88-1.99-1.42-3.22-1.97-4.45-.96,1.45-2.27,2.69-2.75,4.44Z"/>
        <path class="cls-8" d="m174.01,79.11c.91,1.9,1.44,3,1.97,4.1.85-1.48,1.96-2.79,2.45-4.51.24-.84-.69-2.43-1.09-3.68-.96,1.18-1.92,2.35-3.33,4.09Z"/>
        <path class="cls-8" d="m168.6,74.41c-.21,1.15.79,2.7,1.24,4.07.96-1.17,1.91-2.33,3.48-4.25-1.11-2.01-1.77-3.19-2.42-4.37-.81,1.5-2,2.88-2.31,4.55Z"/>
        <path class="cls-8" d="m171.82,58.31c1,2.29,1.43,4.58,2.26,4.9,1.71.66,2.68-2.23,2.8-4.58.08-1.63-.93-3.15-1.45-4.72-1.01,1.23-2.01,2.45-3.61,4.4Z"/>
        <path class="cls-8" d="m169.41,47.91c-.97.05-2.08,2.11-3.69,3.9.93,2.52,1.29,5.11,2.17,5.55,1.6.81,2.55-1.74,2.94-4.38.36-2.49.2-5.14-1.41-5.06Z"/>
        <path class="cls-8" d="m186.34,42.53c-1.74-.53-2.73,2.17-3.13,4.88-.33,2.21-.28,4.65,1.36,4.83,1.86.2,2.6-2.36,3.53-6.05-.46-1.02-.92-3.4-1.76-3.66Z"/>
        <path class="cls-8" d="m192.6,47.3c-1.86-.64-2.81,2.27-3.01,4.81-.12,1.44,1.04,4.25,1.36,4.07,1.17-.67,2.22-2.33,3.96-4.37-1.06-2.18-1.51-4.24-2.3-4.51Z"/>
        <path class="cls-8" d="m198.91,51.69c-1.08,1.1-2.26,2.68-2.81,4.51-.27.92.73,2.74,1.15,4.15,1.11-1.29,2.22-2.58,3.89-4.54-1.08-2.04-2.01-4.35-2.24-4.12Z"/>
        <path class="cls-8" d="m191.85,71.65c-.24.88.81,2.57,1.27,3.9.95-1.24,1.9-2.49,3.34-4.37-.96-1.85-1.5-2.9-2.05-3.95-.9,1.45-2.09,2.71-2.56,4.43Z"/>
        <path class="cls-8" d="m200.97,71.46c-.99,1.04-2.03,2.36-2.65,3.99-.23.62.62,2.3.98,3.5,1-1.08,1.99-2.17,3.49-3.8-.88-1.83-1.67-3.86-1.82-3.7Z"/>
        <path class="cls-8" d="m184.67,67.55c.85,1.94,1.36,3.09,1.86,4.23.99-1.64,2.15-3.12,2.86-5.03.21-.58-.83-2.36-1.29-3.58-1.01,1.29-2.01,2.57-3.43,4.39Z"/>
        <path class="cls-8" d="m162.45,67.97c-.2,1.5.82,3.19,1.3,4.8.94-1.22,1.88-2.45,3.35-4.38-.98-2.12-1.58-3.42-2.17-4.71-.88,1.42-2.28,2.76-2.48,4.29Z"/>
        <path class="cls-8" d="m188.74,90.48c.85-1.04,1.7-2.07,3.06-3.72-.84-1.66-1.58-3.6-1.78-3.41-.9.86-1.92,2.14-2.35,3.63-.22.78.67,2.31,1.07,3.5Z"/>
        <path class="cls-8" d="m181.62,58.99c-1.63-.42-2.29,2.16-2.61,4.51-.3,2.15-.15,4.59,1.38,4.08,1.04-.35,2.03-2.39,3.68-4.49-1.12-1.98-1.65-3.9-2.45-4.1Z"/>
        <path class="cls-8" d="m128.52,74.11c1.05,2.08,1.68,3.32,2.31,4.56.81-1.4,2.1-2.74,2.27-4.2.16-1.38-.86-2.89-1.36-4.34-.88,1.09-1.76,2.18-3.22,3.98Z"/>
        <path class="cls-8" d="m136.2,54.12c-1.56-.47-2.58,2.07-2.53,4.5.04,1.76.91,3.26,1.41,4.88,1.02-1.34,2.03-2.68,3.57-4.69-1.06-2.14-1.57-4.43-2.45-4.69Z"/>
        <path class="cls-8" d="m130.6,96c.92,1.74,1.39,3.54,2.02,3.56.57.02,1.79-1.92,1.88-2.99.11-1.31-.67-2.62-1.07-3.92-.77.91-1.53,1.81-2.83,3.35Z"/>
        <path class="cls-8" d="m163.22,41.45c-1.05.19-2.15,2.49-3.91,4.68,1.19,2.41,1.75,4.86,2.72,5.22,1.66.61,2.5-2.28,2.84-4.75.34-2.54.13-5.47-1.65-5.15Z"/>
        <path class="cls-8" d="m119.23,83c-.19,1.32.68,2.84,1.08,4.27.85-.95,1.69-1.9,3.04-3.41-.85-2-1.38-3.25-1.92-4.5-.78,1.2-2.02,2.33-2.2,3.64Z"/>
        <path class="cls-8" d="m121.14,104.85c-.18,1.09.56,2.4.89,3.61.72-.72,1.43-1.45,2.63-2.65-.73-1.84-1.16-2.92-1.59-3.99-.68,1-1.74,1.91-1.92,3.03Z"/>
        <path class="cls-8" d="m123.49,66.9c-.22,1.67.59,3.5.96,5.26.95-.89,1.89-1.77,3.43-3.22-.85-2.54-1.37-4.11-1.9-5.68-.88,1.21-2.32,2.33-2.5,3.64Z"/>
        <path class="cls-8" d="m130.19,47.27c-1.52-.6-2.39,1.98-2.68,4.4-.3,2.54-.16,5.43,1.63,5.15.96-.15,1.98-2.47,3.53-4.56-1.06-2.26-1.56-4.63-2.47-4.99Z"/>
        <path class="cls-14" d="m152.68,51.13c-.97.17-2,2.46-3.58,4.56,1.1,2.17,1.64,4.47,2.55,4.77,1.56.52,2.28-2.02,2.57-4.5.3-2.54.05-5.1-1.55-4.83Z"/>
        <path class="cls-9" d="m152.07,77.5c-.18,1.35.84,2.89,1.33,4.34.88-1.16,1.77-2.32,3.12-4.09-.95-1.92-1.53-3.1-2.11-4.28-.83,1.34-2.15,2.6-2.34,4.04Z"/>
        <path class="cls-8" d="m158.82,57.61c-1.52-.52-2.61,2.1-2.63,4.43-.01,1.7.96,3.19,1.49,4.77.98-1.23,1.95-2.46,3.45-4.35-.99-2.19-1.45-4.56-2.31-4.84Z"/>
        <path class="cls-8" d="m142.11,60.82c-1.53-.47-2.16,2.03-2.4,4.35-.24,2.34-.05,4.88,1.52,4.53.93-.21,1.89-2.38,3.45-4.52-1.13-2.03-1.69-4.09-2.57-4.36Z"/>
        <path class="cls-8" d="m137.94,76.94c-1.41-.69-2.28,1.51-2.27,3.66,0,1.53.73,2.88,1.13,4.31.84-1.01,1.68-2.01,3-3.6-.8-2-1.13-4.02-1.86-4.37Z"/>
        <path class="cls-8" d="m146.79,44.55c-1.64-.64-2.5,1.97-2.81,4.66-.28,2.44-.24,5.24,1.44,5.01,1.05-.14,2.18-2.34,3.82-4.27-1.08-2.52-1.54-5.05-2.45-5.4Z"/>
        <path class="cls-8" d="m222.27,48.48c-1.08.94-2.23,2.51-2.84,4.28-.25.72.95,3.84,1.26,3.67,1.11-.6,2.12-2.16,3.82-4.09-1.09-1.94-1.94-4.13-2.24-3.86Z"/>
        <path class="cls-8" d="m258.75,50.67c-.98.73-2.02,2.04-2.63,3.56-.24.59.69,3.46.9,3.35,1.05-.54,2.05-1.74,3.71-3.33-1-1.87-1.68-3.81-1.98-3.58Z"/>
        <path class="cls-8" d="m259.92,41.27c-.3.75.51,2.65,1.1,5.36,1.42-2.74,2.53-4.23,3.02-6.09.22-.85-.76-2.41-1.2-3.64-1.01,1.42-2.23,2.63-2.92,4.38Z"/>
        <path class="cls-8" d="m265.11,53.64c-.96.84-1.83,2.29-2.54,3.77-.11.23.88,2.79,1.19,2.63,1-.55,1.91-1.87,3.46-3.55-1.07-1.5-1.8-3.11-2.11-2.84Z"/>
        <path class="cls-8" d="m249.13,85.36c.99-2.19,1.72-3.44,2.1-4.89.13-.49-.66-1.5-1.03-2.27-.71,1.19-1.53,2.27-2.05,3.64-.17.44.44,1.66.98,3.52Z"/>
        <path class="cls-13" d="m269.28,40.18c-1.05.8-1.95,2.47-2.91,3.8.5,1.16,1.08,3.45,1.47,3.27,1.06-.49,2.04-2.04,3.62-3.82-1.07-1.65-1.83-3.53-2.19-3.25Z"/>
        <path class="cls-8" d="m256.59,33.86c-1.13.36-2.23,1.79-4.04,3.44.98,2.16,1.67,4.53,2.02,4.31,1.13-.7,2.35-2.11,3.07-3.78.28-.66-.7-4.08-1.06-3.97Z"/>
        <path class="cls-8" d="m249.54,51.5c-.21,1.01.7,2.47,1.1,3.73.94-1.33,2.11-2.45,2.73-4.1.3-.8-.41-2.6-.66-3.94-.33-.1-.66-.2-.99-.3-.77,1.52-1.84,2.92-2.19,4.61Z"/>
        <path class="cls-8" d="m205.69,44.25c.98,2.39,1.35,4.56,2.14,4.93,1.62.78,2.81-1.57,3.03-4.17.13-1.59-.68-3.17-1.07-4.76-1.14,1.12-2.29,2.24-4.09,3.99Z"/>
        <path class="cls-8" d="m247.56,60.92c-.67,1.49-1.55,2.88-1.92,4.51-.17.76.63,1.98.99,2.99.83-1.28,1.83-2.4,2.4-3.93.25-.68-.38-2.2-.61-3.34-.29-.07-.57-.15-.86-.22Z"/>
        <path class="cls-8" d="m269.27,59.28c-.22.66.55,2.11.86,3.2.85-1.06,1.86-1.91,2.46-3.26.29-.65-.22-2.26-.52-4.64-1.36,2.16-2.33,3.23-2.81,4.7Z"/>
        <path class="cls-8" d="m276.95,34.29c-.18.68.81,2.88,1.47,3.02,1.47.32,2.66-1.54,2.81-4.13.07-1.32-.7-2.57-1.45-5.03-1.32,2.72-2.34,4.27-2.83,6.14Z"/>
        <path class="cls-8" d="m283.45,67.59c1.03-1.92,1.82-3.04,2.27-4.43.13-.39-.96-2.36-1.08-2.24-.8.86-1.59,1.96-2.13,3.27-.17.4.44,1.69.94,3.4Z"/>
        <path class="cls-11" d="m275.79,43.04c-1.02.88-1.97,2.35-2.75,3.88-.13.25.76,2.9,1.09,2.77,1.04-.4,2.04-1.62,3.06-2.51.05-.57.1-1.13.16-1.7-.53-.87-1.27-2.69-1.56-2.44Z"/>
        <path class="cls-8" d="m272.93,76.98c.69-1,1.49-1.87,2-3.08.17-.41-.39-1.67-.88-3.53-.98,1.97-1.7,3.02-2.04,4.31-.13.51.58,1.52.91,2.3Z"/>
        <path class="cls-8" d="m279.76,49.13c-.2.64.62,2.04.98,3.1.92-1.19,1.98-2.19,2.7-3.66.24-.49-.4-2.19-.9-4.62-1.32,2.35-2.28,3.59-2.78,5.18Z"/>
        <path class="cls-8" d="m218.04,63.56c-1.04.67-1.99,1.93-3.55,3.61.95,1.86,1.73,3.81,1.9,3.63.99-1.03,2.02-2.38,2.64-4.01.22-.57-.8-3.35-.99-3.23Z"/>
        <path class="cls-8" d="m218.74,87.91c.9-.61,1.72-1.77,3.03-3.27-.85-1.45-1.52-2.98-1.69-2.8-.87.92-1.71,2.15-2.32,3.55-.14.32.78,2.65.98,2.51Z"/>
        <path class="cls-8" d="m215.93,44.4c-1.48-.47-2.45,1.6-2.89,4.17-.39,2.26-.27,4.7,1.15,4.47,1.11-.18,2.27-2.2,4.12-4.14-1.11-2.21-1.58-4.24-2.38-4.49Z"/>
        <path class="cls-8" d="m208.09,63.65c.92,1.91,1.72,4.08,1.9,3.89,1.03-1,2.21-2.36,2.71-4.04.26-.88-.76-2.66-1.2-4.03-.97,1.19-1.94,2.38-3.42,4.18Z"/>
        <path class="cls-8" d="m286.35,33.08c-1.02.7-2.02,2.15-2.77,3.66-.17.35.77,3.25,1.04,3.12,1.13-.57,2.21-1.84,3.3-2.86.04-.58.09-1.16.13-1.73-.58-.79-1.29-2.47-1.7-2.18Z"/>
        <path class="cls-8" d="m119.86,56.64c-1.46-.88-2.31,1.56-2.64,3.8-.35,2.4-.2,5.13,1.42,5.09.89-.02,1.94-2.12,3.46-3.93-.96-2.24-1.37-4.44-2.24-4.96Z"/>
        <path class="cls-8" d="m224.3,66.91c-.94.93-1.88,2.4-2.44,3.99-.19.53.95,3.13,1.18,2.97.99-.71,1.86-2.1,3.33-3.94-1.01-1.51-1.81-3.29-2.08-3.03Z"/>
        <path class="cls-8" d="m239.38,41.04c-1.1.86-2.25,2.46-2.88,4.22-.25.69.92,3.87,1.25,3.71,1.13-.55,2.18-2.1,3.91-3.96-1.09-1.98-1.92-4.24-2.28-3.97Z"/>
        <path class="cls-8" d="m235.15,55.57c-1.02.89-2.04,2.28-2.7,3.89-.22.54.7,3.37,1,3.25,1.04-.41,2.04-1.66,3.72-3.2-1.02-2.04-1.77-4.15-2.01-3.94Z"/>
        <path class="cls-8" d="m241.38,58.82c-.94.85-1.82,2.41-2.4,3.99-.18.49.83,2.95,1.04,2.81,1.06-.72,2.03-1.99,3.73-3.84-1.21-1.58-2.03-3.28-2.37-2.97Z"/>
        <path class="cls-1" d="m245.68,44.53c-1.55-.37-2.61,1.68-2.71,4.2-.05,1.21.93,3.4,1.33,3.23,1.02-.43,1.98-1.94,3.58-3.69-1.06-1.89-1.51-3.57-2.2-3.73Z"/>
        <path class="cls-8" d="m232.97,37.35c-1.66-.56-2.78,1.86-2.98,4.31-.12,1.42,1.03,4.2,1.37,4.02,1.16-.64,2.22-2.3,3.95-4.31-1.11-2-1.58-3.76-2.33-4.02Z"/>
        <path class="cls-8" d="m228.66,51.96c-1.06,1.14-2.1,2.74-2.78,4.54-.19.52,1.03,3.4,1.3,3.22,1.11-.75,2.11-2.27,3.66-4.12-1.05-1.79-1.97-3.87-2.19-3.63Z"/>
        <path class="cls-8" d="m212.37,85.33c.8-1.27,1.78-2.38,2.3-3.89.24-.69-.44-2.17-.71-3.29-.28-.04-.56-.08-.84-.12-.63,1.41-1.5,2.73-1.79,4.25-.16.85.66,2.02,1.03,3.05Z"/>
        <path class="cls-8" d="m19.29,91.54c.1,1.25.59,2.31.92,3.44.47-.79,1.28-1.6,1.34-2.38.08-1.08-.4-2.15-.82-4.02-.74,1.48-1.48,2.41-1.44,2.96Z"/>
        <path class="cls-8" d="m26.78,39.57c-.58,1.26-1.67,2.74-1.61,3.73.1,1.74.91,3.19,1.43,4.76.72-1.08,1.98-2.19,2.04-3.23.11-1.75-.53-3.47-.85-5.2-.33-.02-.67-.04-1-.06Z"/>
        <path class="cls-8" d="m17.31,69.73c.21,1.41.74,2.73,1.36,3.67.14.21,1.14-1.22,2.26-2.47-.89-1.58-1.39-2.85-2.1-3.49-.19-.17-1.57,1.87-1.51,2.3Z"/>
        <path class="cls-8" d="m113.14,76.29c-.1,1.54.81,3.03,1.28,4.54.83-1.08,1.66-2.16,3.05-3.97-.96-1.91-1.58-3.15-2.2-4.39-.76,1.28-2.06,2.58-2.14,3.82Z"/>
        <path class="cls-8" d="m15.38,48.05c.08,1.58.7,3.2,1.41,4.15.24.32,1.41-1.32,2.78-2.67-1.03-2.03-1.67-3.31-2.32-4.58-.67,1.05-1.91,2.33-1.88,3.11Z"/>
        <path class="cls-8" d="m26.29,65.23c.88,1.91,1.44,3.11,2,4.31.65-1.02,1.88-2.31,1.83-3.01-.11-1.49-.78-2.88-1.45-3.85-.17-.24-1.21,1.27-2.38,2.54Z"/>
        <path class="cls-8" d="m31.11,51.91c.03,1.61.84,2.99,1.32,4.47.76-.92,1.51-1.84,2.84-3.45-1-1.95-1.64-3.19-2.28-4.43-.67,1.15-1.91,2.47-1.89,3.42Z"/>
        <path class="cls-8" d="m42.75,68.77c0,1.48.87,2.74,1.36,4.1.71-.89,1.42-1.78,2.6-3.28-.87-1.81-1.45-3.01-2.02-4.21-.69,1.14-1.94,2.42-1.94,3.39Z"/>
        <path class="cls-8" d="m34.78,96.16c.12,1.3.72,2.35,1.13,3.5.52-.68,1.05-1.36,1.58-2.04.32-.64.64-1.28.96-1.93-.7-.63-1.35-1.68-2.11-1.73-.47-.03-1.61,1.71-1.56,2.2Z"/>
        <path class="cls-8" d="m40.03,46.02c.92,2.21,1.54,3.68,2.16,5.16.81-1.15,2.3-2.51,2.28-3.4-.04-1.91-.86-3.58-1.36-5.35-.85.99-1.71,1.99-3.08,3.59Z"/>
        <path class="cls-8" d="m30.02,84.74c-.4,1.04-1.19,2.31-1.1,3.08.15,1.28.85,2.24,1.32,3.33.45-.89,1.26-1.84,1.28-2.65.03-1.33-.46-2.56-.72-3.83-.26.03-.52.05-.78.08Z"/>
        <path class="cls-8" d="m34.37,70.66c-.51,1.08-1.44,2.28-1.42,3.2.03,1.44.7,2.67,1.1,4,.59-.9,1.6-1.8,1.69-2.72.13-1.45-.36-2.91-.59-4.36-.26-.04-.51-.07-.77-.11Z"/>
        <path class="cls-8" d="m11.47,60.65c.05,1.58.6,2.99,1.19,5.47.95-2.04,1.87-3.32,1.78-3.93-.22-1.52-.9-2.74-1.4-4.09-.56.86-1.59,1.89-1.57,2.55Z"/>
        <path class="cls-8" d="m36.06,59.9c.94,2.12,1.53,3.45,2.13,4.78.68-1.01,1.95-2.23,1.92-3-.06-1.68-.67-3.28-1.3-4.55-.11-.22-1.39,1.37-2.74,2.76Z"/>
        <path class="cls-8" d="m5.72,51.84c.22,1.53.9,2.82,1.56,3.91.09.15,1.1-1.34,2.15-2.66-.85-1.74-1.44-2.94-2.02-4.14-.6.99-1.77,2.36-1.69,2.9Z"/>
        <path class="cls-8" d="m0,43.04c.02,1.56.65,2.95,1.33,5.57.93-2.38,1.82-3.81,1.72-4.6-.2-1.53-.97-2.71-1.51-4.04C.99,41.01-.01,42.17,0,43.04Z"/>
        <path class="cls-8" d="m8.6,39.54c1.17,1.86,1.86,3.19,2.72,4.08.13.13,1.61-2.17,1.53-2.7-.27-1.78-.97-3.26-1.51-4.85-.7.89-1.41,1.78-2.75,3.47Z"/>
        <path class="cls-8" d="m2.86,30.23c1.01,2.22,1.55,3.86,2.37,4.87.17.21,2.06-2.32,2-2.94-.19-1.78-.87-3.42-1.61-4.66-.16-.27-1.38,1.34-2.76,2.73Z"/>
        <path class="cls-8" d="m13.44,82.5c.14,1.32.73,2.39,1.13,3.57.49-.77,1.38-1.62,1.38-2.28,0-1.37-.45-2.63-.92-4.91-.86,1.89-1.66,2.99-1.59,3.62Z"/>
        <path class="cls-8" d="m88.93,47.82c-.54,2.38-.27,5.32,1.52,5.23.9-.05,1.93-2.08,3.56-3.98-1.11-2.48-1.81-4.07-2.52-5.66-.88,1.45-2.16,2.72-2.55,4.41Z"/>
        <path class="cls-8" d="m84.82,63.14c-.13,1.68.77,3.34,1.23,5.01.88-1.01,1.77-2.02,3.27-3.73-.98-2.33-1.58-3.74-2.17-5.15-.82,1.29-2.23,2.59-2.33,3.87Z"/>
        <path class="cls-8" d="m89.96,70.38c.87,2.04,1.44,3.38,2.01,4.72.83-1.26,2.2-2.47,2.34-3.8.16-1.45-.8-3.01-1.27-4.52-.85.99-1.7,1.98-3.09,3.59Z"/>
        <path class="cls-8" d="m73.84,71.04c.94,1.88,1.56,3.13,2.19,4.37.7-1.18,1.97-2.47,1.98-3.5.02-1.62-.81-3.06-1.27-4.57-.78.99-1.55,1.98-2.9,3.7Z"/>
        <path class="cls-8" d="m85.61,36.21c-1.52-.88-2.45,1.82-2.74,4.17-.3,2.43-.25,5.44,1.5,5.42.95-.01,2.06-2.08,3.75-3.93-1.08-2.58-1.54-5.1-2.51-5.66Z"/>
        <path class="cls-8" d="m76.48,93.48c-.14,1.36.42,2.77.67,4.16.3.02.61.04.91.06.51-1.22,1.44-2.58,1.42-3.62-.04-1.36-.84-2.47-1.31-3.69-.6,1.03-1.58,2.03-1.69,3.09Z"/>
        <path class="cls-8" d="m81.14,51.99c-1.45-.64-2.47,1.92-2.39,4.03.07,1.82,1.05,3.32,1.62,4.97.87-1.24,1.74-2.47,3.03-4.31-.93-2.05-1.39-4.3-2.26-4.69Z"/>
        <path class="cls-8" d="m91.97,92.73c.74,1.91,1.21,3.12,1.68,4.34.73-1.11,1.92-2.17,2.06-3.34.15-1.25-.7-2.62-1.11-3.93-.73.82-1.47,1.64-2.63,2.94Z"/>
        <path class="cls-8" d="m109.41,65.52c-1.44-.48-2.39,1.89-2.33,4.16.05,1.62.86,3,1.33,4.48.89-1.14,1.77-2.29,3.11-4.02-.9-2.1-1.32-4.36-2.11-4.63Z"/>
        <path class="cls-8" d="m97.39,51.11c-1.4-.66-2.46,1.87-2.41,4.07.04,1.88.89,3.51,1.39,5.25.97-1.21,1.94-2.42,3.44-4.29-1-2.21-1.48-4.59-2.41-5.03Z"/>
        <path class="cls-8" d="m107.73,42.31c-1.51-.57-2.31,2.04-2.58,4.53-.29,2.62-.18,5.4,1.62,5.13.97-.15,2-2.37,3.63-4.46-1.14-2.35-1.69-4.83-2.67-5.2Z"/>
        <path class="cls-8" d="m113.84,49.53c-1.56-.78-2.4,1.93-2.72,4.3-.33,2.44-.07,5.11,1.53,5.04.9-.04,1.94-2.13,3.47-3.97-.98-2.44-1.39-4.93-2.29-5.38Z"/>
        <path class="cls-8" d="m96.95,77.62c-.06,1.58.74,3.05,1.18,4.57.78-.98,1.56-1.97,2.91-3.67-.9-1.9-1.51-3.17-2.11-4.44-.7,1.19-1.94,2.44-1.98,3.54Z"/>
        <path class="cls-8" d="m103.36,58.35c-1.44-.5-2.17,1.84-2.4,4.24-.23,2.4,0,4.7,1.56,4.43.86-.15,1.76-2.09,3.19-3.93-1.01-2.16-1.48-4.44-2.34-4.74Z"/>
        <path class="cls-8" d="m48.7,76.42c.11,1.54.67,3.02,1.31,4.07.15.25,1.28-1.24,2.53-2.51-.92-1.91-1.41-3.31-2.15-4.13-.17-.18-1.74,1.94-1.69,2.56Z"/>
        <path class="cls-8" d="m50.55,98.99c-.13,1.31.33,2.65.72,5.08,1-2.02,1.87-3.11,1.85-3.92-.02-1.32-.63-2.47-.99-3.69-.56.85-1.5,1.67-1.58,2.54Z"/>
        <path class="cls-8" d="m54.49,58.42c-.62,1.27-1.75,2.66-1.74,3.77,0,1.67.8,3.14,1.26,4.69.74-1.1,1.96-2.16,2.09-3.3.18-1.64-.45-3.36-.73-5.04-.29-.04-.58-.08-.87-.12Z"/>
        <path class="cls-8" d="m54.62,84.68c-.02,1.4.65,2.66,1.03,3.98.72-.77,1.45-1.55,2.68-2.86-.89-1.77-1.34-3.13-2.05-3.77-.2-.18-1.64,1.83-1.65,2.66Z"/>
        <path class="cls-8" d="m56.8,47.92c-.1,1.67.63,3.69,1.41,4.68.3.38,1.71-1.69,3.3-3.37-1.12-2.39-1.79-3.83-2.46-5.27-.8,1.32-2.17,2.68-2.25,3.95Z"/>
        <path class="cls-8" d="m46.84,54.03c-.04,1.74.67,3.52,1.36,4.82.15.28,1.51-1.42,2.92-2.8-.87-2.32-1.44-3.85-2.01-5.37-.81,1.13-2.26,2.38-2.28,3.36Z"/>
        <path class="cls-8" d="m46.2,88.38c-.38-.23-1.26,1.36-2.35,2.65.85,1.58,1.39,2.57,1.92,3.56.54-1.05,1.44-2.13,1.51-3.15.07-1.11-.5-2.71-1.07-3.06Z"/>
        <path class="cls-8" d="m62.8,55.7c-.09,1.67.83,3.26,1.32,4.89.89-1.08,1.78-2.17,3.23-3.93-1.03-2.2-1.69-3.6-2.34-4.99-.78,1.35-2.13,2.74-2.2,4.04Z"/>
        <path class="cls-8" d="m66.47,101.06c-.15,1.07.44,2.27.7,3.41h.76c.43-1.16,1.21-2.41,1.21-3.47,0-1.14-.71-2.11-1.12-3.16-.55,1.07-1.4,2.08-1.55,3.21Z"/>
        <path class="cls-8" d="m63.77,78.22c.95,1.86,1.54,3.01,2.13,4.17.66-1.08,1.85-2.28,1.85-3.21.01-1.53-.74-2.89-1.17-4.32-.77.91-1.53,1.83-2.81,3.35Z"/>
        <path class="cls-8" d="m70.92,59.84c-1.42-.72-2.28,1.68-2.23,3.72.04,1.63.88,3,1.36,4.49.84-1.02,1.67-2.03,3.02-3.68-.93-2.06-1.35-4.12-2.16-4.53Z"/>
        <path class="cls-8" d="m60.57,92.87c-.16,1.28.33,2.65.54,3.98.25.03.5.05.76.08.5-1.1,1.38-2.28,1.4-3.28.02-1.29-.66-2.43-1.04-3.63-.58.95-1.52,1.84-1.65,2.86Z"/>
        <path class="cls-8" d="m58.7,70.43c-.07,1.47.74,2.85,1.17,4.27.77-.89,1.53-1.78,2.9-3.37-.96-1.97-1.56-3.22-2.17-4.47-.68,1.2-1.85,2.44-1.91,3.58Z"/>
        <path class="cls-8" d="m75.23,44.42c-.82,0-1.8,1.82-3.29,3.45.95,2.47,1.33,4.92,2.22,5.44,1.38.81,2.23-1.49,2.53-3.9.31-2.49.16-4.98-1.46-5Z"/>
        <path class="cls-8" d="m21.24,56.65c.22,1.6.85,3.02,1.52,4.17.11.19,1.22-1.36,2.48-2.83-1.04-1.84-1.63-3.17-2.41-4.01-.14-.15-1.66,2.13-1.59,2.67Z"/>
        <path class="cls-8" d="m483.98,32.8c.65.97,1.21,2.3,1.99,2.75.37.21,1.18-1.26,1.79-1.97-.47-1.15-.93-2.31-1.66-4.11-.97,1.52-1.55,2.42-2.12,3.33Z"/>
        <path class="cls-8" d="m489.54,23.15c-.6-.21-1.52,1.22-2.31,1.93.5,1.27.99,2.54,1.74,4.47,1.09-1.57,1.74-2.52,2.39-3.46-.6-1.04-1.08-2.67-1.83-2.93Z"/>
        <path class="cls-8" d="m288.84,48.22c-.92.9-1.71,2.32-2.54,3.56.42.79.92,2.39,1.26,2.22.91-.47,1.75-1.68,3.16-3.17-.96-1.38-1.64-2.83-1.87-2.6Z"/>
        <path class="cls-8" d="m495.55,27.95c-.37-.26-1.3,1.36-1.98,2.13.49,1.18.98,2.37,1.7,4.11,1.02-1.35,1.66-2.19,2.29-3.03-.65-1.13-1.19-2.65-2.01-3.21Z"/>
        <path class="cls-8" d="m453.33,51.48c.38.14,1-.89,1.51-1.4-.28-.87-.55-1.74-.83-2.61-.28-.37-.55-.74-.83-1.11-.37,1.05-1.03,2.15-1.04,3.12,0,.8.67,1.81,1.19,2Z"/>
        <path class="cls-8" d="m482.67,38.53c-.56-.06-1.26,1.11-1.9,1.73.52.89.94,2.22,1.6,2.54.51.25,1.31-.78,2.73-1.76-1.2-1.32-1.75-2.44-2.43-2.51Z"/>
        <path class="cls-8" d="m457.49,20.44c-.52-.22-1.39,1.18-2.11,1.85.47,1.14.94,2.28,1.62,3.95,1.03-1.33,1.67-2.15,2.31-2.97-.59-1-1.08-2.51-1.82-2.83Z"/>
        <path class="cls-8" d="m460.49,32.14c-.54-.09-1.26,1.19-1.9,1.86.49.92.87,2.28,1.5,2.61.49.26,1.3-.77,2.62-1.67-1.06-1.42-1.56-2.68-2.21-2.79Z"/>
        <path class="cls-8" d="m447.74,23.85c-.54-.13-1.34,1.37-2.02,2.15.44,1.01.88,2.01,1.52,3.5.93-1.29,1.57-2.17,2.21-3.06-.56-.93-1.03-2.42-1.71-2.59Z"/>
        <path class="cls-8" d="m448.96,37.41c.43.83.77,2.2,1.31,2.32.53.12,1.26-1.02,1.9-1.61-.33-.95-.65-1.9-1.14-3.3-.88,1.11-1.48,1.85-2.07,2.6Z"/>
        <path class="cls-8" d="m454.18,27.95c-.56-.08-1.32,1.32-1.99,2.07.43,1,.86,1.99,1.52,3.52.91-1.39,1.52-2.31,2.12-3.23-.54-.85-1.01-2.27-1.65-2.36Z"/>
        <path class="cls-8" d="m473.35,21.44c-.42-.23-1.31,1.38-1.98,2.17.51,1.15,1.03,2.3,1.77,3.97.98-1.37,1.62-2.25,2.25-3.13-.66-1.06-1.22-2.55-2.04-3.01Z"/>
        <path class="cls-8" d="m476.54,33.7c-.58-.14-1.38,1.14-2.08,1.79.39,1.03.79,2.06,1.42,3.72.96-1.32,1.58-2.16,2.19-3-.5-.9-.91-2.37-1.53-2.52Z"/>
        <path class="cls-8" d="m463.78,24.68c-.54-.13-1.33,1.29-2.01,2.03.48,1.04.97,2.07,1.73,3.7.93-1.47,1.51-2.39,2.09-3.3-.59-.87-1.11-2.26-1.81-2.43Z"/>
        <path class="cls-8" d="m477.67,27.8c.59,1.08,1.07,2.65,1.83,3.06.49.26,1.41-1.19,2.14-1.87-.47-1.21-.94-2.43-1.61-4.18-1.04,1.32-1.7,2.16-2.35,2.99Z"/>
        <path class="cls-8" d="m464.97,38.62c.56.8,1.03,1.99,1.7,2.28.43.19,1.15-.93,2.44-2.09-1.25-1.07-1.86-1.99-2.56-2.04-.46-.03-1.05,1.19-1.58,1.85Z"/>
        <path class="cls-8" d="m468.18,30.83c.47.96.83,2.52,1.43,2.7.61.18,1.46-1.02,2.21-1.62-.37-1.17-.73-2.34-1.3-4.16-1.06,1.4-1.7,2.24-2.33,3.08Z"/>
        <path class="cls-8" d="m444.55,31.66c-.6-.03-1.31,1.01-1.97,1.59.47.87.85,2.2,1.45,2.48.51.23,1.29-.77,2.59-1.66-1.02-1.26-1.5-2.39-2.08-2.41Z"/>
        <path class="cls-8" d="m491.98,35.7c-.43-.09-1.1,1.42-1.67,2.21.61.9,1.14,2.2,1.88,2.54.48.22,1.27-.96,1.93-1.52.05-.42.1-.84.14-1.26-.75-.71-1.45-1.79-2.28-1.97Z"/>
        <path class="cls-8" d="m346.54,28.51c-.93.61-1.82,1.77-2.6,2.97-.1.15.54,1.81,1.08,3.55,1.16-1.77,1.94-2.97,2.72-4.18-.41-.84-.94-2.52-1.21-2.35Z"/>
        <path class="cls-8" d="m344.28,55.66c.75-.27,1.48-1.09,2.65-2.05-.63-1.12-1-2.23-1.23-2.1-.75.42-1.46,1.29-2.18,1.99.26.76.54,2.24.76,2.16Z"/>
        <path class="cls-8" d="m337.21,29.73c-.07.16.88,2.44,1.21,2.26.95-.51,1.93-1.6,2.68-2.85.19-.31-.46-2.13-.97-4.34-1.33,2.15-2.2,3.43-2.91,4.93Z"/>
        <path class="cls-8" d="m340.37,41.74c-.09.17.73,2.26.93,2.13.85-.59,1.69-1.56,2.39-2.66.13-.2-.38-1.67-.8-3.38-1.11,1.66-1.9,2.67-2.52,3.92Z"/>
        <path class="cls-8" d="m335.9,37.37c-.8.39-1.51,1.7-2.27,2.62.41.82.84,2.42,1.24,2.31.87-.25,1.72-1.38,3.28-2.78-1.18-1.19-1.78-2.39-2.26-2.15Z"/>
        <path class="cls-8" d="m329.93,51.06c.44.66.96,2.04,1.3,1.84.73-.43,1.46-1.55,1.97-2.66.14-.3-.5-1.6-1.03-3.21-.98,1.76-1.6,2.89-2.23,4.02Z"/>
        <path class="cls-8" d="m333.86,65.13c.7-.71,1.37-1.6,1.97-2.57.05-.07-.46-1.2-.9-2.33-.76,1.28-1.38,2.1-1.78,3.14-.1.27.64,1.83.7,1.77Z"/>
        <path class="cls-8" d="m356.01,42.35c-.78.54-1.48,1.65-2.2,2.53.31.71.67,2.11.93,2,.82-.34,1.6-1.26,2.97-2.46-.9-1.15-1.4-2.27-1.69-2.07Z"/>
        <path class="cls-8" d="m362.45,43.99c-.65.34-1.23,1.42-1.83,2.19.33.63.67,1.85,1,1.76.67-.18,1.33-1.06,2.54-2.14-.87-.97-1.35-2-1.71-1.81Z"/>
        <path class="cls-8" d="m359.7,32.12c-.85.56-1.6,1.79-2.39,2.75.38.72.77,2.14,1.13,2.03.86-.26,1.7-1.25,3.2-2.47-1.04-1.3-1.59-2.54-1.94-2.32Z"/>
        <path class="cls-8" d="m364.18,36.21c-.12.28.69,2.32.92,2.19.81-.46,1.56-1.52,2.33-2.34-.3-.87-.6-1.73-1.1-3.15-.92,1.35-1.66,2.18-2.14,3.3Z"/>
        <path class="cls-8" d="m327.02,38.5c-.1.26.94,2.35,1.16,2.16.89-.73,1.74-1.91,2.4-3.21.15-.29-.55-1.8-1.12-3.57-1.08,1.95-1.88,3.17-2.44,4.62Z"/>
        <path class="cls-8" d="m353.13,30.44c-.86.47-1.73,1.48-2.43,2.6-.14.22.43,1.83.88,3.62,1.16-1.69,1.96-2.67,2.57-3.92.1-.21-.76-2.45-1.02-2.3Z"/>
        <path class="cls-8" d="m349.23,40.75c-.78.48-1.47,1.72-2.19,2.64.39.72.8,2.15,1.17,2.02.81-.28,1.59-1.33,2.98-2.62-1.02-1.11-1.58-2.27-1.96-2.04Z"/>
        <path class="cls-8" d="m327.16,63.72c.72-.24,1.43-.99,2.79-2.04-.89-1.19-1.36-2.26-1.62-2.07-.71.52-1.33,1.56-1.98,2.4.27.61.56,1.79.81,1.71Z"/>
        <path class="cls-8" d="m305.88,40.45c-.94.58-1.82,1.93-2.57,3.23-.11.19.64,2.74.94,2.64,1.02-.36,2.01-1.42,3.01-2.21.05-.51.11-1.03.16-1.54-.52-.76-1.15-2.36-1.54-2.12Z"/>
        <path class="cls-8" d="m299.52,38.09c-1.04.84-1.95,2.28-2.91,3.49.41.98.85,2.89,1.24,2.77.97-.3,1.93-1.53,3.5-2.93-.93-1.75-1.57-3.54-1.83-3.34Z"/>
        <path class="cls-8" d="m309.8,28.63c-1.04.74-1.92,2.4-2.87,3.69.45.94.92,2.77,1.33,2.63,1.07-.36,2.11-1.58,3.16-2.46.04-.52.09-1.04.13-1.57-.59-.82-1.34-2.58-1.75-2.29Z"/>
        <path class="cls-8" d="m292.36,34.75c-.79,1.54-1.73,2.96-2.27,4.69-.17.56.96,2.9,1.1,2.76,1.04-.95,2.13-2.12,2.87-3.67.24-.5-.49-2.33-.78-3.56-.31-.07-.62-.15-.93-.22Z"/>
        <path class="cls-8" d="m295.36,50.36c-.9.72-1.68,2.1-2.5,3.23.39.89.86,2.67,1.15,2.52.93-.49,1.8-1.68,3.17-3.11-.9-1.35-1.53-2.87-1.82-2.64Z"/>
        <path class="cls-8" d="m301.75,52.46c-.84.7-1.53,2.1-2.28,3.22.44.79.93,2.38,1.3,2.22.83-.37,1.61-1.62,2.95-3.13-1.02-1.23-1.67-2.56-1.98-2.3Z"/>
        <path class="cls-5" d="m320.73,62.5c.73-.32,1.42-1.38,2.6-2.65-.83-.99-1.32-2.06-1.64-1.86-.71.47-1.34,1.56-2,2.4.35.75.75,2.24,1.04,2.11Z"/>
        <path class="cls-8" d="m323.14,33.33c-.98.62-1.87,1.9-2.79,2.93.33.95.69,2.78.98,2.68,1.01-.36,2-1.39,3.59-2.63-.92-1.6-1.47-3.18-1.78-2.98Z"/>
        <path class="cls-8" d="m325.75,46.42c-.85.73-1.7,1.72-2.35,2.92-.16.3.38,1.73.79,3.45,1.1-1.74,1.91-2.8,2.49-4.12.12-.27-.79-2.37-.92-2.26Z"/>
        <path class="cls-8" d="m312.56,42.64c-.92.61-1.74,1.89-2.6,2.91.34.94.73,2.76,1.02,2.65.94-.36,1.84-1.44,3.29-2.71-.86-1.48-1.41-3.05-1.71-2.85Z"/>
        <path class="cls-8" d="m316.49,31.01c-1.03.81-1.93,2.29-2.88,3.51.43.94.91,2.8,1.29,2.65,1-.39,1.95-1.66,3.57-3.18-1.01-1.57-1.68-3.22-1.99-2.98Z"/>
        <path class="cls-8" d="m318.97,44.62c-.84.69-1.68,1.8-2.26,3.08-.18.39.48,1.83.99,3.59,1.09-1.91,1.89-3.02,2.39-4.4.12-.34-.91-2.44-1.12-2.27Z"/>
        <path class="cls-8" d="m389.21,30.73c-.58.11-1.18,1.41-1.77,2.18.5.69.94,1.88,1.51,1.94.58.06,1.28-1.01,2.53-2.12-1.11-1.05-1.68-2.11-2.26-2Z"/>
        <path class="cls-8" d="m413.46,26.47c.54.84,1.01,2.3,1.63,2.34.6.04,1.35-1.38,2.04-2.16-.42-.99-.84-1.98-1.49-3.51-.94,1.45-1.56,2.39-2.17,3.33Z"/>
        <path class="cls-8" d="m418.45,36.1c-.52-.04-1.16,1.11-1.75,1.73.31.86.61,1.73.92,2.59.29.38.58.76.87,1.14.43-1.16,1.12-2.32,1.21-3.47.06-.72-.74-1.95-1.25-1.99Z"/>
        <path class="cls-8" d="m405.6,29.09c-.6.09-1.24,1.24-1.87,1.92.53.81.98,2.1,1.61,2.27.51.13,1.25-1.09,2.47-2.28-1.07-1-1.62-2-2.21-1.92Z"/>
        <path class="cls-8" d="m411.99,32.07c-.6.77-1.19,1.53-1.79,2.3.46.79.85,2.16,1.39,2.19.54.04,1.49-1.07,1.76-2.01.27-.92-.09-2.26-.18-3.42-.39.31-.79.62-1.18.94Z"/>
        <path class="cls-8" d="m409.16,20.78c-.72.18-1.44,1.57-2.16,2.43.56.78,1.05,2.09,1.7,2.2.62.1,1.41-1.05,2.8-2.23-1.15-1.26-1.74-2.55-2.34-2.4Z"/>
        <path class="cls-8" d="m434.49,35.51c-.49.03-1.05,1.29-1.58,2,.5.7.93,1.79,1.53,1.97.45.14,1.11-.87,2.33-1.93-1.14-1.09-1.68-2.07-2.28-2.04Z"/>
        <path class="cls-8" d="m438,26.93c-.61.9-1.21,1.81-1.82,2.71.46.78.88,2.2,1.4,2.18.65-.03,1.7-1.04,1.97-2.01.28-.99-.18-2.45-.31-3.7-.41.28-.83.55-1.24.83Z"/>
        <path class="cls-8" d="m429.75,25.68c.47.9.86,2.45,1.44,2.53.62.09,1.41-1.2,2.13-1.89-.37-1.04-.73-2.08-1.3-3.7-.99,1.33-1.63,2.2-2.26,3.06Z"/>
        <path class="cls-8" d="m423.29,21.89c.46.9.85,2.5,1.39,2.53.71.04,1.55-1.17,2.33-1.84-.39-1-.78-2-1.37-3.52-1.03,1.23-1.69,2.03-2.35,2.83Z"/>
        <path class="cls-8" d="m428.31,31.82c-.58.05-1.22,1.17-1.84,1.81.47.72.87,1.9,1.43,2.03.57.13,1.3-.78,2.7-1.75-1.18-1.15-1.71-2.15-2.3-2.1Z"/>
        <path class="cls-8" d="m422.13,28.1c-.7.09-1.43,1.15-2.14,1.79.34.93.69,1.85,1.27,3.43.91-1.37,1.51-2.27,2.1-3.17-.41-.73-.79-2.11-1.23-2.05Z"/>
        <path class="cls-8" d="m392.94,22.11c-.65.03-1.39,1.31-2.09,2.04.46.95.82,2.5,1.42,2.69.61.19,1.46-.97,2.94-2.09-1.12-1.38-1.65-2.66-2.27-2.63Z"/>
        <path class="cls-8" d="m379.36,37.33c-.72.49-1.34,1.59-2.01,2.44.38.56.8,1.7,1.14,1.56.74-.32,1.44-1.29,2.73-2.55-.97-.81-1.5-1.69-1.86-1.44Z"/>
        <path class="cls-8" d="m380.88,30.01c.36.76.81,2.28,1.06,2.13.79-.46,1.55-1.49,2.22-2.5.08-.12-.43-1.48-.84-2.87-1.01,1.34-1.72,2.29-2.44,3.24Z"/>
        <path class="cls-8" d="m374.16,28.74c.44.63.94,1.93,1.32,1.75.82-.38,1.58-1.53,2.36-2.37-.34-.91-.69-1.83-1.27-3.38-1.01,1.68-1.71,2.84-2.41,4Z"/>
        <path class="cls-8" d="m386.09,39.6c-.64.13-1.3,1.05-1.95,1.64.27.75.48,2.1.84,2.13.63.06,1.35-.67,2.55-1.38-.72-1.26-1.07-2.47-1.44-2.39Z"/>
        <path class="cls-8" d="m370.72,38.06c.38.62.84,1.89,1.12,1.72.75-.45,1.47-1.43,2.08-2.44.1-.17-.41-1.49-.84-2.98-1.01,1.57-1.69,2.63-2.37,3.69Z"/>
        <path class="cls-8" d="m400.41,39.5c.44.66.84,1.83,1.33,1.83.52,0,1.14-1.13,1.71-1.77-.31-.87-.62-1.73-1.11-3.1-.83,1.3-1.38,2.17-1.93,3.04Z"/>
        <path class="cls-8" d="m441.59,19.88c-.63-.11-1.49,1.38-2.25,2.17.46,1.06.92,2.13,1.58,3.64,1-1.31,1.66-2.17,2.31-3.03-.54-.99-.98-2.66-1.64-2.77Z"/>
        <path class="cls-8" d="m399.49,25.61c-.74.15-1.49,1.37-2.24,2.14.36.92.72,1.84,1.28,3.27.9-1.23,1.54-2.1,2.19-2.98-.41-.87-.8-2.51-1.22-2.43Z"/>
        <path class="cls-8" d="m369.77,24.21c-.84.51-1.58,1.85-2.36,2.84.49.72.98,2.14,1.45,2.01.84-.23,1.67-1.4,2.51-2.18.01-.45.02-.9.03-1.35-.55-.49-1.19-1.6-1.64-1.33Z"/>
        <path class="cls-8" d="m395.26,32.47c-.43,1.15-1.08,2.28-1.21,3.46-.08.72.66,2.2,1.01,2.1.68-.19,1.58-1.04,1.95-2.04.27-.72-.16-2.12-.28-3.22-.49-.1-.98-.19-1.47-.29Z"/>
        <path class="cls-8" d="m493.62,10.4c.62,1.45,1.23,2.9,2.16,5.07,1.24-1.87,2.01-3.02,2.77-4.17-.75-1.13-1.38-2.91-2.27-3.17-.72-.21-1.76,1.45-2.66,2.27Z"/>
      </g>
    </g>
  </g>
</svg>