<?xml version="1.0" encoding="UTF-8"?>
<svg xmlns="http://www.w3.org/2000/svg" xmlns:xlink="http://www.w3.org/1999/xlink" viewBox="0 0 468.5 417.66">
  <defs>
    <style>
      .cls-1 {
        fill: url(#Degradado_sin_nombre_208);
      }

      .cls-2 {
        fill: url(#Degradado_sin_nombre_245-2);
      }

      .cls-2, .cls-3, .cls-4, .cls-5, .cls-6 {
        opacity: .8;
      }

      .cls-7 {
        fill: url(#Degradado_sin_nombre_264);
      }

      .cls-8 {
        fill: url(#Degradado_sin_nombre_59);
        filter: url(#drop-shadow-2);
      }

      .cls-9 {
        fill: url(#Degradado_sin_nombre_49-6);
      }

      .cls-10 {
        fill: url(#Degradado_sin_nombre_208-3);
      }

      .cls-11 {
        fill: url(#Degradado_sin_nombre_49-3);
      }

      .cls-12 {
        fill: url(#Degradado_sin_nombre_49-5);
      }

      .cls-3 {
        fill: url(#Degradado_sin_nombre_246);
      }

      .cls-13 {
        fill: url(#Degradado_sin_nombre_207);
        mix-blend-mode: multiply;
      }

      .cls-4 {
        fill: url(#Degradado_sin_nombre_45-2);
      }

      .cls-4, .cls-14, .cls-15 {
        mix-blend-mode: screen;
      }

      .cls-16 {
        fill: url(#Degradado_sin_nombre_49-2);
      }

      .cls-5 {
        fill: url(#Degradado_sin_nombre_245);
      }

      .cls-17 {
        isolation: isolate;
      }

      .cls-18 {
        fill: url(#Degradado_sin_nombre_234);
      }

      .cls-19 {
        fill: url(#Degradado_sin_nombre_45);
        opacity: .6;
      }

      .cls-20 {
        filter: url(#drop-shadow-3);
      }

      .cls-21 {
        fill: url(#Degradado_sin_nombre_210);
      }

      .cls-22 {
        fill: #fff;
        filter: url(#drop-shadow-1);
        stroke: url(#Degradado_sin_nombre_24);
        stroke-miterlimit: 10;
        stroke-width: 10.53px;
      }

      .cls-23 {
        fill: url(#Degradado_sin_nombre_271-2);
      }

      .cls-24 {
        letter-spacing: -.03em;
      }

      .cls-25 {
        opacity: .4;
      }

      .cls-26 {
        letter-spacing: -.05em;
      }

      .cls-6 {
        fill: url(#Degradado_sin_nombre_313);
      }

      .cls-27 {
        fill: url(#Degradado_sin_nombre_208-2);
      }

      .cls-28 {
        fill: url(#Degradado_sin_nombre_271);
      }

      .cls-29 {
        fill: url(#Degradado_sin_nombre_49);
      }

      .cls-30 {
        letter-spacing: -.03em;
      }

      .cls-31 {
        fill: url(#Degradado_sin_nombre_208-4);
      }

      .cls-14 {
        fill: url(#Degradado_sin_nombre_267-2);
        opacity: .7;
      }

      .cls-32 {
        fill: url(#Degradado_sin_nombre_263);
      }

      .cls-33 {
        fill: url(#Degradado_sin_nombre_234-2);
      }

      .cls-34 {
        letter-spacing: -.04em;
      }

      .cls-35 {
        fill: url(#Degradado_sin_nombre_49-4);
      }

      .cls-15 {
        fill: url(#Degradado_sin_nombre_267);
        opacity: .3;
      }

      .cls-36 {
        fill: #ffd857;
        font-family: Montserrat-ExtraBold, Montserrat;
        font-size: 21.24px;
        font-weight: 700;
      }
    </style>
    <linearGradient id="Degradado_sin_nombre_45" data-name="Degradado sin nombre 45" x1="164" y1="20.82" x2="252.2" y2="268.58" gradientUnits="userSpaceOnUse">
      <stop offset="0" stop-color="#fff"/>
      <stop offset=".06" stop-color="#fff" stop-opacity=".96"/>
      <stop offset=".71" stop-color="#fff" stop-opacity=".56"/>
      <stop offset="1" stop-color="#fff" stop-opacity=".4"/>
    </linearGradient>
    <linearGradient id="Degradado_sin_nombre_45-2" data-name="Degradado sin nombre 45" x1="178.07" y1="61.21" x2="249.14" y2="260.85" xlink:href="#Degradado_sin_nombre_45"/>
    <linearGradient id="Degradado_sin_nombre_24" data-name="Degradado sin nombre 24" x1="230.53" y1="358.95" x2="230.53" y2="71.94" gradientUnits="userSpaceOnUse">
      <stop offset="0" stop-color="#dccdff"/>
      <stop offset="1" stop-color="#fff"/>
    </linearGradient>
    <filter id="drop-shadow-1" filterUnits="userSpaceOnUse">
      <feOffset dx="7.37" dy="13.69"/>
      <feGaussianBlur result="blur" stdDeviation="10.53"/>
      <feFlood flood-color="#b25109" flood-opacity=".75"/>
      <feComposite in2="blur" operator="in"/>
      <feComposite in="SourceGraphic"/>
    </filter>
    <linearGradient id="Degradado_sin_nombre_271" data-name="Degradado sin nombre 271" x1="226.25" y1="215.12" x2="118.61" y2="124.88" gradientUnits="userSpaceOnUse">
      <stop offset="0" stop-color="#754dfa"/>
      <stop offset=".58" stop-color="#8c3ffa"/>
      <stop offset="1" stop-color="#9839fa"/>
    </linearGradient>
    <linearGradient id="Degradado_sin_nombre_210" data-name="Degradado sin nombre 210" x1="246.65" y1="117.07" x2="246.65" y2="190.4" gradientUnits="userSpaceOnUse">
      <stop offset="0" stop-color="#552be0"/>
      <stop offset=".61" stop-color="#6f1ee0"/>
      <stop offset="1" stop-color="#7b19e0"/>
    </linearGradient>
    <linearGradient id="Degradado_sin_nombre_271-2" data-name="Degradado sin nombre 271" x1="304.59" y1="182.12" x2="332.07" y2="168.84" xlink:href="#Degradado_sin_nombre_271"/>
    <linearGradient id="Degradado_sin_nombre_208" data-name="Degradado sin nombre 208" x1="242.12" y1="119.21" x2="226.03" y2="221.07" gradientUnits="userSpaceOnUse">
      <stop offset="0" stop-color="#855dff"/>
      <stop offset=".14" stop-color="#8e58ff"/>
      <stop offset=".69" stop-color="#ad4aff"/>
      <stop offset="1" stop-color="#b945ff"/>
    </linearGradient>
    <linearGradient id="Degradado_sin_nombre_234" data-name="Degradado sin nombre 234" x1="182.56" y1="83.37" x2="177.88" y2="143.76" gradientUnits="userSpaceOnUse">
      <stop offset="0" stop-color="#c38fff"/>
      <stop offset=".27" stop-color="#b785ff"/>
      <stop offset=".75" stop-color="#986cff"/>
      <stop offset="1" stop-color="#855dff"/>
    </linearGradient>
    <linearGradient id="Degradado_sin_nombre_234-2" data-name="Degradado sin nombre 234" x1="127.16" y1="200.67" x2="260.72" y2="313.63" xlink:href="#Degradado_sin_nombre_234"/>
    <linearGradient id="Degradado_sin_nombre_264" data-name="Degradado sin nombre 264" x1="394.84" y1="202.15" x2="236.35" y2="258.95" gradientTransform="translate(-37.03 92.89) rotate(-11.92) scale(1 .88)" gradientUnits="userSpaceOnUse">
      <stop offset="0" stop-color="#8a2be8"/>
      <stop offset=".36" stop-color="#7e2ce8"/>
      <stop offset="1" stop-color="#5f30e8"/>
      <stop offset="1" stop-color="#5f31e8"/>
    </linearGradient>
    <linearGradient id="Degradado_sin_nombre_263" data-name="Degradado sin nombre 263" x1="298.98" y1="100.65" x2="287.84" y2="171.2" gradientTransform="translate(35.74 -55.97) rotate(13.04)" gradientUnits="userSpaceOnUse">
      <stop offset="0" stop-color="#9f5ee8"/>
      <stop offset=".26" stop-color="#9355e8"/>
      <stop offset=".73" stop-color="#743fe8"/>
      <stop offset="1" stop-color="#5f31e8"/>
    </linearGradient>
    <linearGradient id="Degradado_sin_nombre_208-2" data-name="Degradado sin nombre 208" x1="242.12" y1="119.21" x2="226.04" y2="221.02" xlink:href="#Degradado_sin_nombre_208"/>
    <linearGradient id="Degradado_sin_nombre_208-3" data-name="Degradado sin nombre 208" x1="349.77" y1="136.22" x2="333.69" y2="238.05" xlink:href="#Degradado_sin_nombre_208"/>
    <linearGradient id="Degradado_sin_nombre_208-4" data-name="Degradado sin nombre 208" x1="133.5" y1="102.08" x2="117.42" y2="203.9" xlink:href="#Degradado_sin_nombre_208"/>
    <linearGradient id="Degradado_sin_nombre_207" data-name="Degradado sin nombre 207" x1="315.04" y1="166.77" x2="305.53" y2="187.99" gradientUnits="userSpaceOnUse">
      <stop offset="0" stop-color="#b945ff"/>
      <stop offset=".08" stop-color="#b745ff" stop-opacity=".95"/>
      <stop offset=".21" stop-color="#b447ff" stop-opacity=".83"/>
      <stop offset=".39" stop-color="#af49ff" stop-opacity=".63"/>
      <stop offset=".61" stop-color="#a84dff" stop-opacity=".35"/>
      <stop offset=".86" stop-color="#a051ff" stop-opacity="0"/>
      <stop offset=".87" stop-color="#a052ff" stop-opacity="0"/>
    </linearGradient>
    <linearGradient id="Degradado_sin_nombre_313" data-name="Degradado sin nombre 313" x1="207.91" y1="342.38" x2="169.53" y2="187.91" gradientUnits="userSpaceOnUse">
      <stop offset="0" stop-color="#a732e5"/>
      <stop offset=".09" stop-color="#b037e8"/>
      <stop offset=".48" stop-color="#d44cf4"/>
      <stop offset=".8" stop-color="#ea59fc"/>
      <stop offset="1" stop-color="#f35eff"/>
    </linearGradient>
    <linearGradient id="Degradado_sin_nombre_246" data-name="Degradado sin nombre 246" x1="321.23" y1="316.72" x2="283.12" y2="163.35" gradientUnits="userSpaceOnUse">
      <stop offset="0" stop-color="#f35eff"/>
      <stop offset=".37" stop-color="#d14af3"/>
      <stop offset=".77" stop-color="#b238e9"/>
      <stop offset="1" stop-color="#a732e5"/>
    </linearGradient>
    <linearGradient id="Degradado_sin_nombre_267" data-name="Degradado sin nombre 267" x1="203.16" y1="158.39" x2="192.56" y2="203.34" gradientUnits="userSpaceOnUse">
      <stop offset="0" stop-color="#d693ff"/>
      <stop offset=".57" stop-color="#cb9eff"/>
      <stop offset="1" stop-color="#c0abff"/>
    </linearGradient>
    <linearGradient id="Degradado_sin_nombre_245" data-name="Degradado sin nombre 245" x1="176.89" y1="153.72" x2="175.64" y2="120.33" gradientUnits="userSpaceOnUse">
      <stop offset="0" stop-color="#a732e5"/>
      <stop offset=".23" stop-color="#b238e9"/>
      <stop offset=".63" stop-color="#d14af3"/>
      <stop offset="1" stop-color="#f35eff"/>
    </linearGradient>
    <linearGradient id="Degradado_sin_nombre_245-2" data-name="Degradado sin nombre 245" x1="304.9" y1="116.3" x2="287.42" y2="173.09" xlink:href="#Degradado_sin_nombre_245"/>
    <linearGradient id="Degradado_sin_nombre_267-2" data-name="Degradado sin nombre 267" x1="217.74" y1="137.58" x2="160.52" y2="101.68" xlink:href="#Degradado_sin_nombre_267"/>
    <linearGradient id="Degradado_sin_nombre_59" data-name="Degradado sin nombre 59" x1="240.75" y1="316.93" x2="237.39" y2="287.64" gradientUnits="userSpaceOnUse">
      <stop offset=".2" stop-color="#2c006e"/>
      <stop offset=".29" stop-color="#320477"/>
      <stop offset=".64" stop-color="#471296"/>
      <stop offset=".84" stop-color="#4f18a2"/>
    </linearGradient>
    <filter id="drop-shadow-2" filterUnits="userSpaceOnUse">
      <feOffset dx="3.09" dy="5.15"/>
      <feGaussianBlur result="blur-2" stdDeviation="3.09"/>
      <feFlood flood-color="#634389" flood-opacity=".6"/>
      <feComposite in2="blur-2" operator="in"/>
      <feComposite in="SourceGraphic"/>
    </filter>
    <filter id="drop-shadow-3" filterUnits="userSpaceOnUse">
      <feOffset dx="0" dy="7.57"/>
      <feGaussianBlur result="blur-3" stdDeviation="4.33"/>
      <feFlood flood-color="#817293" flood-opacity=".7"/>
      <feComposite in2="blur-3" operator="in"/>
      <feComposite in="SourceGraphic"/>
    </filter>
    <linearGradient id="Degradado_sin_nombre_49" data-name="Degradado sin nombre 49" x1="219.84" y1="263.87" x2="219.84" y2="179.38" gradientTransform="translate(9.62 20.61) rotate(-4.16) skewX(-6.75)" gradientUnits="userSpaceOnUse">
      <stop offset="0" stop-color="#cfc5ff"/>
      <stop offset=".21" stop-color="#dbd4ff"/>
      <stop offset=".72" stop-color="#f5f3ff"/>
      <stop offset="1" stop-color="#fff"/>
    </linearGradient>
    <linearGradient id="Degradado_sin_nombre_49-2" data-name="Degradado sin nombre 49" x1="221.83" y1="292.54" x2="221.83" y2="234.85" xlink:href="#Degradado_sin_nombre_49"/>
    <linearGradient id="Degradado_sin_nombre_49-3" data-name="Degradado sin nombre 49" x1="221.83" y1="292.54" x2="221.83" y2="234.85" xlink:href="#Degradado_sin_nombre_49"/>
    <linearGradient id="Degradado_sin_nombre_49-4" data-name="Degradado sin nombre 49" x1="221.83" y1="292.54" x2="221.83" y2="234.85" xlink:href="#Degradado_sin_nombre_49"/>
    <linearGradient id="Degradado_sin_nombre_49-5" data-name="Degradado sin nombre 49" x1="221.83" y1="292.54" x2="221.83" y2="234.85" xlink:href="#Degradado_sin_nombre_49"/>
    <linearGradient id="Degradado_sin_nombre_49-6" data-name="Degradado sin nombre 49" x1="317.88" y1="305.2" x2="317.88" y2="167.98" gradientTransform="translate(38.44 -8.46) rotate(2.21) scale(1.01 .99) skewX(-6.67)" xlink:href="#Degradado_sin_nombre_49"/>
  </defs>
  <g class="cls-17">
    <g id="Layer_2" data-name="Layer 2">
      <g id="OBJECTS">
        <g class="cls-25">
          <path class="cls-19" d="m468.5,244.07l-159.43,19.47,108.22,145.57-143.18-108.29,44.21,100.52-101.31-105.37-83.49,121.7,39.96-140.04-138.87,23.17,98.55-65.95L0,186.43l156.13,9.47-80.48-102.34,108.33,60.74L161.36,0l68.62,143.58,56.71-87.49-19.51,115.99,157.39-62.69-103.73,88.18,147.66,46.51Z"/>
          <polygon class="cls-4" points="183.26 268.89 65.5 288.54 148.53 232.97 47.75 196.34 171.27 203.83 102.86 116.84 192.97 167.36 175 44.77 229.05 157.87 274.18 88.25 258.22 183.18 387.56 131.66 306.66 200.43 435.58 241.04 296.27 258.05 382.46 373.98 256.86 278.99 296.04 368.05 216.1 284.91 152.04 378.3 183.26 268.89"/>
        </g>
        <g>
          <g>
            <polygon class="cls-22" points="357.83 153.54 315.68 126.27 315.68 126.27 311.91 123.83 240.88 77.9 194.18 98.22 194.18 98.22 163.8 111.44 163.8 111.44 135.47 123.76 119.34 152 168.64 185.21 145.2 191.92 145.2 191.92 103.69 203.81 146.48 353.23 192.48 348.22 192.48 348.22 228.3 344.32 228.3 344.32 281.28 338.56 308.78 326.77 308.78 326.77 309.71 326.37 341.23 312.87 326.06 201.3 326.06 201.3 325.03 193.72 348.91 187.67 357.83 153.54"/>
            <g>
              <g>
                <polygon class="cls-28" points="119.34 152 220.62 220.21 229.57 191.4 135.47 123.76 119.34 152"/>
                <polygon class="cls-21" points="135.47 123.76 229.57 191.4 357.83 153.54 240.88 77.9 135.47 123.76"/>
                <polygon class="cls-23" points="220.62 220.21 229.57 191.4 357.83 153.54 348.91 187.67 220.62 220.21"/>
                <polygon class="cls-1" points="335.17 185.72 221.61 214.53 131.59 153.9 119.34 152 220.62 220.21 348.91 187.67 335.17 185.72"/>
                <path class="cls-18" d="m135.47,123.76l105.41-45.86-12.58,39.13-108.96,34.97,16.13-28.24Z"/>
                <polygon class="cls-33" points="281.28 338.56 146.48 353.23 103.69 203.81 244.32 163.54 281.28 338.56"/>
                <polygon class="cls-7" points="341.23 312.87 281.28 338.56 244.32 163.54 320.19 158.09 341.23 312.87"/>
                <polygon class="cls-32" points="348.91 187.67 228.3 117.03 240.88 77.9 357.83 153.54 348.91 187.67"/>
                <g>
                  <polygon class="cls-27" points="227.67 122.76 334.73 185.47 348.91 187.67 228.3 117.03 119.34 152 131.29 153.7 227.67 122.76"/>
                  <polygon class="cls-10" points="335.17 185.72 348.91 187.67 334.73 185.47 335.17 185.72"/>
                  <polygon class="cls-31" points="131.29 153.7 119.34 152 131.59 153.9 131.29 153.7"/>
                </g>
                <polygon class="cls-13" points="322.98 178.58 291.5 160.15 326.06 201.3 322.98 178.58"/>
                <polygon class="cls-6" points="145.2 191.92 192.48 348.22 228.3 344.32 192.48 178.38 145.2 191.92"/>
                <polygon class="cls-3" points="308.78 326.77 276.34 161.24 291.5 160.15 298.25 164.1 322.13 321.05 308.78 326.77"/>
                <polygon class="cls-15" points="103.69 203.81 244.32 163.54 291.5 160.15 244.99 166.16 264 256.73 242.18 168.66 103.69 203.81"/>
              </g>
              <polygon class="cls-5" points="156.99 139.32 163.8 111.44 194.18 98.22 185.69 130.27 156.99 139.32"/>
              <polygon class="cls-2" points="281.28 148.06 294.97 112.88 315.68 126.27 301.92 160.15 281.28 148.06"/>
            </g>
            <polygon class="cls-14" points="240.88 77.9 135.47 123.76 120.16 150.56 137.35 125.54 240.88 77.9"/>
          </g>
          <path class="cls-8" d="m318.36,310.15l-153.83,20.5c-8.87,1.18-17.01-5.05-18.19-13.92h0c-1.18-8.87,5.05-17.01,13.92-18.19l153.83-20.5c8.87-1.18,17.01,5.05,18.19,13.92h0c1.18,8.87-5.05,17.01-13.92,18.19Z"/>
        </g>
      </g>
      <g id="TEXTS">
        <g>
          <g class="cls-20">
            <g>
              <path class="cls-29" d="m155.95,254.82c-3.43.55-6.58.52-9.46-.09-2.88-.61-5.33-1.74-7.37-3.4-2.03-1.66-3.58-3.75-4.65-6.27-1.07-2.52-1.53-5.42-1.37-8.69.15-3.27.89-6.36,2.21-9.27,1.32-2.91,3.11-5.54,5.35-7.89,2.24-2.35,4.86-4.3,7.86-5.86,3-1.56,6.25-2.62,9.76-3.19,4.08-.66,7.71-.57,10.86.25,3.16.83,5.73,2.34,7.71,4.53l-8.13,8.25c-1.41-1.35-2.95-2.29-4.63-2.81-1.67-.52-3.56-.61-5.67-.27-1.86.3-3.56.86-5.12,1.68-1.55.82-2.89,1.86-4.02,3.11-1.12,1.26-2.02,2.68-2.69,4.27-.67,1.59-1.05,3.32-1.13,5.2-.08,1.8.14,3.4.66,4.82.53,1.42,1.3,2.58,2.32,3.49,1.02.91,2.27,1.54,3.75,1.89,1.48.35,3.13.38,4.94.08s3.6-.88,5.36-1.75c1.76-.87,3.56-2.17,5.4-3.88l6.47,7.41c-2.56,2.16-5.49,3.97-8.79,5.43-3.3,1.47-6.53,2.45-9.66,2.96Zm7.7-8.24l.76-16.18,10.83-1.75-.83,17.77-10.76.15Z"/>
              <path class="cls-29" d="m180.13,250.07l2.01-42.9,12.25-1.98-2.01,42.9-12.25,1.98Z"/>
              <path class="cls-29" d="m212.43,244.85l-16.5-39.92,13.25-2.14,13.86,34.62-7.8,1.26,17.71-39.72,12.13-1.96-20.58,45.9-12.07,1.95Z"/>
              <path class="cls-29" d="m256.32,228.46l22.65-3.66-.44,9.38-34.78,5.61,2.01-42.9,33.98-5.48-.44,9.38-21.85,3.53-1.13,24.15Zm-.07-16.78l20.12-3.25-.42,9.07-20.12,3.25.42-9.07Z"/>
            </g>
            <g>
              <path class="cls-16" d="m149.81,290.83l13.95-30.35,7.97-1.29,11.34,26.27-8.42,1.36-8.74-22.8,3.19-.51-11.03,25.99-8.25,1.33Zm7.16-6.61l2.36-6.24,13.97-2.25,1.81,5.57-18.14,2.93Z"/>
              <path class="cls-11" d="m186.74,284.87l-7.95-26.82,8.33-1.34,6.65,23.25-4.21.68,9.36-25.84,7.43-1.2,6.61,23.26-4.04.65,9.2-25.81,7.72-1.25-10.6,29.81-8.66,1.4-5.64-19.76,2.33-.38-7.88,21.95-8.66,1.4Z"/>
              <path class="cls-35" d="m218.93,279.67l13.95-30.35,7.97-1.29,11.34,26.27-8.42,1.36-8.74-22.8,3.19-.51-11.03,25.99-8.25,1.33Zm7.16-6.62l2.36-6.24,13.97-2.25,1.81,5.57-18.14,2.93Z"/>
              <path class="cls-12" d="m255.81,273.72l.56-11.97,1.65,4.51-11.79-19.09,8.54-1.38,8.51,13.84-4.94.8,9.99-16.83,7.84-1.27-13.74,23.21,2.02-5.1-.56,11.97-8.09,1.3Z"/>
            </g>
            <path class="cls-9" d="m290.48,272.02c-2.78.13-4.95-.63-6.49-2.3-1.55-1.66-2.13-3.71-1.74-6.15.39-2.44,1.63-4.56,3.73-6.36,2.1-1.8,4.54-2.77,7.32-2.9,2.78-.13,4.91.62,6.38,2.25,1.47,1.63,2.02,3.66,1.63,6.1-.39,2.44-1.6,4.57-3.62,6.41-2.03,1.84-4.43,2.82-7.21,2.95Zm-1.61-27.02l5.65-53.33,17.63-.85-11.48,53.61-11.79.57Z"/>
          </g>
          <text class="cls-36" transform="translate(157.9 322.48) rotate(-7.77) skewX(-7.63)"><tspan class="cls-24" x="0" y="0">ENTER </tspan><tspan class="cls-34" x="77.23" y="0">T</tspan><tspan class="cls-30" x="89.87" y="0">O </tspan><tspan class="cls-26" x="112.74" y="0">W</tspan><tspan class="cls-24" x="136.93" y="0">IN</tspan></text>
        </g>
      </g>
    </g>
  </g>
</svg>